<svg xmlns="http://www.w3.org/2000/svg" viewBox="0 0 208.92 115.68"><defs><style>.cls-1{fill:#3d77e2;}.cls-2{fill:#9dc635;}</style></defs><title>img-subscribeAsset 13</title><g id="Layer_2" data-name="Layer 2"><g id="Layer_1-2" data-name="Layer 1"><path class="cls-1" d="M172.28,61.72A11.33,11.33,0,0,0,160.6,50.49,11.44,11.44,0,0,0,149.46,62a11.88,11.88,0,0,0,1.9,6.1h-.6l-4.46.09c-1.64,0-3.28.08-4.92.08-12.13,0-24.3.59-36.41.66L88.79,69l-14.45.07A11.42,11.42,0,1,0,54.07,62a11.83,11.83,0,0,0,2.87,7.42c-1.57.1-3.14.18-4.72.21-.68,0-1.35,0-2,0-1.87,0-3.75,0-5.62,0a8,8,0,0,1-6.88-3.46,9.93,9.93,0,0,1-1.38-4.37c-.28-1.94-.65-4-.06-5.9a7.59,7.59,0,0,1,4.19-4.38A90.75,90.75,0,0,1,61.18,44c7.74-1.78,15.72-1.66,23.45-3.4,4.59-1,8.72-3.51,13.09-5.18a88.72,88.72,0,0,1,14.75-4.22,100.28,100.28,0,0,1,29.75-1.1,77,77,0,0,1,12.53,2.62c-.73-.21-2-2-2.58-2.57-8.92-8.11-19.64-13.42-31.09-16.92C113.91,11,106.3,9.09,99,6.83A65.51,65.51,0,0,1,88.81,3.12C86,1.69,83-.92,79.58.33a6.46,6.46,0,0,0-1.32.78C75.81,2.76,76,6.46,76.9,8.94c1.76,5.09,6.51,8.58,10.74,11.53a27.37,27.37,0,0,0,5.89,3.1c.44,5.58-22.94,7.24-26.63,7.68-8.6,1-17.43,1.82-25.69,4.59a45.76,45.76,0,0,0-8.84,3.87c-2.18,1.29-3.88,3-4.09,5.61-.18,2.18,1.2,3.16,2.2,4.85-1.63,0-3.71,1.08-5.13,1.83a14.79,14.79,0,0,0-4.58,3.45,6.06,6.06,0,0,0,3.12,9.74c.87.27,1.76.43,2.64.63.53.13.76.06.77.53,0,.64-.29,1.28-.26,2a6.57,6.57,0,0,0,2.86,4.84c2.74,1.9,6.16,2.43,9.42,2.57s6.84-.66,10-.07c-.42,2.69-.62,5.61,2.51,6.84C59,85.31,67,85.06,74.56,84.38s14.82.28,22.37.57c22.1.88,50.67,2.86,68.81-12a27.12,27.12,0,0,0,3.14-2.85A11.45,11.45,0,0,0,172.28,61.72ZM65.69,57a5.25,5.25,0,1,1-5.26,5.25A5.25,5.25,0,0,1,65.69,57Zm95.39,0a5.25,5.25,0,1,1-5.25,5.25A5.25,5.25,0,0,1,161.08,57Z"/><path class="cls-2" d="M10.92,95A10.75,10.75,0,0,0,3.18,98a10,10,0,0,0,0,14.61,10.75,10.75,0,0,0,7.74,3.06,10.71,10.71,0,0,0,7.73-3.06,10,10,0,0,0,0-14.61A10.71,10.71,0,0,0,10.92,95Zm3.89,14.37a5.2,5.2,0,0,1-3.89,1.6A5.2,5.2,0,0,1,7,109.32a5.85,5.85,0,0,1,0-8,5.24,5.24,0,0,1,3.89-1.6,5.24,5.24,0,0,1,3.89,1.6,5.88,5.88,0,0,1,0,8Z"/><path class="cls-2" d="M37.14,105.08A9.08,9.08,0,0,0,35.36,104a14.5,14.5,0,0,0-1.94-.74c-.64-.2-1.23-.38-1.76-.56a4.45,4.45,0,0,1-1.31-.66,1.14,1.14,0,0,1-.51-.92,1.49,1.49,0,0,1,.61-1.18,2.28,2.28,0,0,1,1.5-.5,3.66,3.66,0,0,1,1.7.43,5.9,5.9,0,0,1,1.11.7,3.65,3.65,0,0,1,.4.41l3.09-3.22L38,97.48a3.19,3.19,0,0,0-.79-.72A15,15,0,0,0,35.87,96a8.39,8.39,0,0,0-1.95-.7,10.32,10.32,0,0,0-2.53-.3,7.89,7.89,0,0,0-5.34,1.81A5.46,5.46,0,0,0,24,101a5.63,5.63,0,0,0,.5,2.46,4.63,4.63,0,0,0,1.31,1.7,8.92,8.92,0,0,0,1.76,1.08,13.53,13.53,0,0,0,1.94.74c.65.2,1.25.38,1.78.56a4.15,4.15,0,0,1,1.3.65,1.17,1.17,0,0,1,.51.93,1.89,1.89,0,0,1-.7,1.48,2.68,2.68,0,0,1-1.83.61,4.78,4.78,0,0,1-1.39-.21,5.58,5.58,0,0,1-1.16-.5,7,7,0,0,1-.89-.65l-.56-.51a1.72,1.72,0,0,1-.2-.22l-3.07,3.22.3.34a6.72,6.72,0,0,0,1,.84,15.87,15.87,0,0,0,1.54,1,9.06,9.06,0,0,0,2.22.84,11.17,11.17,0,0,0,2.79.35,8.39,8.39,0,0,0,5.7-1.86A5.84,5.84,0,0,0,39,109.24a5.63,5.63,0,0,0-.51-2.46A4.61,4.61,0,0,0,37.14,105.08Z"/><polygon class="cls-2" points="55.78 95.51 39.53 95.51 39.53 100.28 44.99 100.28 44.99 115.12 50.31 115.12 50.31 100.28 55.78 100.28 55.78 95.51"/><path class="cls-2" d="M61.82,95.51l-7.43,19.61h5.75l1.39-4.2H68l1.41,4.2h5.74L67.7,95.51Zm1.12,11.21L64.76,101l1.82,5.74Z"/><polygon class="cls-2" points="87.87 103.22 81.86 95.51 77.1 95.51 77.1 115.12 82.42 115.12 82.42 103.5 87.87 110.36 93.34 103.5 93.34 115.12 98.66 115.12 98.66 95.51 93.9 95.51 87.87 103.22"/><path class="cls-2" d="M136.21,95.51l-7.43,19.61h5.74l1.4-4.2h6.44l1.41,4.2h5.74l-7.42-19.61Zm1.12,11.21,1.82-5.74,1.81,5.74Z"/><path class="cls-2" d="M162.82,107a3.9,3.9,0,0,1-1.07,2.79,3.48,3.48,0,0,1-5.13,0,3.94,3.94,0,0,1-1.07-2.79V95.51h-5.32V107a8.29,8.29,0,0,0,2.55,6.18,9.47,9.47,0,0,0,12.82,0,8.32,8.32,0,0,0,2.54-6.18V95.51h-5.32Z"/><polygon class="cls-2" points="170.55 100.28 176 100.28 176 115.12 181.32 115.12 181.32 100.28 186.79 100.28 186.79 95.51 170.55 95.51 170.55 100.28"/><path class="cls-2" d="M205.74,98a11.31,11.31,0,0,0-15.47,0,10,10,0,0,0,0,14.61,11.31,11.31,0,0,0,15.47,0,10,10,0,0,0,0-14.61Zm-3.84,11.31a5.54,5.54,0,0,1-7.79,0,5.88,5.88,0,0,1,0-8,5.54,5.54,0,0,1,7.79,0,5.88,5.88,0,0,1,0,8Z"/><path class="cls-2" d="M119,108.92a6.4,6.4,0,0,1-1.91,1.27,6.53,6.53,0,0,1-2.82.63,5.47,5.47,0,0,1-4-1.6,5.35,5.35,0,0,1-1.43-2.61h5.63V103.8h-5.63a5.28,5.28,0,0,1,1.43-2.59,5.46,5.46,0,0,1,4-1.59,6.41,6.41,0,0,1,3.16.86,8.27,8.27,0,0,1,1,.77,6.71,6.71,0,0,1,.63.6l.22.28,3.23-3.36-.32-.4a6.07,6.07,0,0,0-1-1,13.68,13.68,0,0,0-1.61-1.15,9.82,9.82,0,0,0-2.35-1,11.28,11.28,0,0,0-10.74,2.65,9.75,9.75,0,0,0-3.07,5.9h-2.31v2.81h2.31a9.75,9.75,0,0,0,3.07,5.91,10.75,10.75,0,0,0,7.75,3,11.08,11.08,0,0,0,3.06-.41,9.44,9.44,0,0,0,4-2.14,9.41,9.41,0,0,0,1-.94c.15-.18.25-.32.33-.43l-3.08-3.36Z"/></g></g></svg>