<svg xmlns="http://www.w3.org/2000/svg" viewBox="0 0 20.37 20.38"><defs><style>.cls-1{fill:#3d77e2;}</style></defs><title>img-subscribeAsset 17</title><g id="Layer_2" data-name="Layer 2"><g id="Layer_1-2" data-name="Layer 1"><path class="cls-1" d="M19.61,14.39l-1.93-1.92a2.63,2.63,0,0,0-3.72,0l-.85.85a1.3,1.3,0,0,1-1.66.13A17.87,17.87,0,0,1,9,11.38,18.6,18.6,0,0,1,6.92,8.92a1.3,1.3,0,0,1,.14-1.66l.85-.85a2.63,2.63,0,0,0,0-3.72L6,.77a2.63,2.63,0,0,0-3.72,0l-.88.88a4.61,4.61,0,0,0-1.34,4A16.75,16.75,0,0,0,2.2,11.52a19,19,0,0,0,2.91,3.74,18.61,18.61,0,0,0,3.75,2.91,16.72,16.72,0,0,0,5.91,2.16,4.89,4.89,0,0,0,.66.05A4.72,4.72,0,0,0,18.73,19l.88-.88a2.66,2.66,0,0,0,0-3.72Z"/></g></g></svg>