<svg xmlns="http://www.w3.org/2000/svg" viewBox="0 0 58.64 56.8"><defs><style>.cls-1{fill:#fff;}.cls-2{fill:#6cbd45;}</style></defs><title>1buildersAsset 13</title><g id="Layer_2" data-name="Layer 2"><g id="Layer_1-2" data-name="Layer 1"><path class="cls-1" d="M58.31,33.32,52.5,27.49V22c0-.05,0-.1,0-.15a5,5,0,0,0-.5-6.54L38.45,1.79h0a6.13,6.13,0,0,0-8.67,0L13.2,18.36l-.09.11a7.65,7.65,0,0,0-6.39,7.37l-3.92,17A4,4,0,0,0,0,46.61v9A1.14,1.14,0,0,0,1.09,56.8H47.53a1.15,1.15,0,0,0,0-2.29H28.66v-7.9a4,4,0,0,0-2.78-3.82l-3.71-16L35.68,13.27l8.7,8.7v5.52l-5.81,5.83a1.17,1.17,0,0,0-.19,1.36l2.83,5.26a1.14,1.14,0,0,0,1,.6,1.2,1.2,0,0,0,.55-.13,1.16,1.16,0,0,0,.46-1.56L40.8,34.34,46,29.1h4.86l5.21,5.24-2.43,4.51a1.16,1.16,0,0,0,.46,1.56,1.2,1.2,0,0,0,.55.13,1.14,1.14,0,0,0,1-.6l2.83-5.26A1.17,1.17,0,0,0,58.31,33.32ZM46.67,23.61a5,5,0,0,0,1.76.32,5.06,5.06,0,0,0,1.78-.32V26.8H46.67Zm-30.47-5L28,6.77a6.1,6.1,0,0,0,5.45,5.45L21.7,24A7.68,7.68,0,0,0,16.2,18.6ZM36.84,3.42A3.85,3.85,0,0,1,37,8.72a.81.81,0,0,0-.14.12,3.84,3.84,0,1,1-5.43-5.43.41.41,0,0,0,.09-.1,3.86,3.86,0,0,1,5.34.11ZM14.34,20.66A5.33,5.33,0,1,1,9,26,5.33,5.33,0,0,1,14.34,20.66Zm12,33.85H2.29v-7.9A1.72,1.72,0,0,1,4,44.89H24.66a1.72,1.72,0,0,1,1.71,1.72ZM5.2,42.6,8.05,30.28a7.61,7.61,0,0,0,12.58,0L23.48,42.6ZM38.46,10.49A6.15,6.15,0,0,0,40.22,6.8L50.37,17a2.74,2.74,0,1,1-3.88,3.88L37.3,11.65Z"/><path class="cls-1" d="M14.34,27.14a1.16,1.16,0,1,0-.81-.34A1.17,1.17,0,0,0,14.34,27.14Z"/><path class="cls-1" d="M33.32,6.93a1.11,1.11,0,0,0,.81.34,1.14,1.14,0,0,0,1.14-1.15A1.13,1.13,0,0,0,34.13,5,1.14,1.14,0,0,0,33,6.12,1.11,1.11,0,0,0,33.32,6.93Z"/><path class="cls-1" d="M16.87,48.56H11.79a1.15,1.15,0,0,0,0,2.29h5.08a1.15,1.15,0,1,0,0-2.29Z"/><path class="cls-1" d="M48.42,20a1.14,1.14,0,0,0,1.15-1.14,1.13,1.13,0,0,0-.34-.81,1.17,1.17,0,0,0-.81-.34,1.19,1.19,0,0,0-.81.34,1.16,1.16,0,0,0-.33.81A1.13,1.13,0,0,0,48.42,20Z"/><circle class="cls-2" cx="14.34" cy="25.99" r="5.27"/></g></g></svg>