<svg xmlns="http://www.w3.org/2000/svg" viewBox="0 0 123.74 123.74"><defs><style>.cls-1{fill:#6cbd45;}.cls-2{fill:#fff;}</style></defs><title>buildAsset 7</title><g id="Layer_2" data-name="Layer 2"><g id="Layer_1-2" data-name="Layer 1"><circle class="cls-1" cx="61.87" cy="61.87" r="61.87"/><path class="cls-2" d="M38.05,36.7a1.24,1.24,0,0,0-1.75,1.75L47.49,49.64a1.22,1.22,0,0,0,.87.36,1.24,1.24,0,0,0,.87-2.11Z"/><path class="cls-2" d="M33.09,41.65a1.23,1.23,0,1,0-1.74,1.75L42.54,54.59a1.23,1.23,0,0,0,1.74-1.75Z"/><path class="cls-2" d="M93.59,52.39c-3.78-.31-5.44-.63-5.32-5.36.08-2.61-1-4-2.78-6.33A26.87,26.87,0,0,0,83,38L81.4,36.47c-6.57-6.57-13.61-9.63-22.15-9.63a45.77,45.77,0,0,0-8.72.91,1.23,1.23,0,0,0-1,1.25c0,.05,0,.37,0,.43a1.24,1.24,0,0,0,.79.94c1.12.42,2.27.79,3.41,1.16l.4.13A44.59,44.59,0,0,1,62.55,35c3.24,1.87,5.47,3.55,5.78,5.7.27,1.72-.61,3.51-3.11,6.37l-7,6.37a23.71,23.71,0,0,1-3.62-7.88,2.68,2.68,0,0,0-.71-1.15c-.54-.51-6.83-6.81-10.2-10.2L43,33.58a8,8,0,0,0-5.56-2.67,6.62,6.62,0,0,0-4.12,1.5,62.6,62.6,0,0,0-6.25,6.26,6.86,6.86,0,0,0,1,9.55c6.6,6.56,10.6,10.57,11,11a2.56,2.56,0,0,0,1.16.71,25.39,25.39,0,0,1,7.29,3.22L26.24,82.43a3.07,3.07,0,0,0-1.18,2.06,3.35,3.35,0,0,0,.86,2.21c1.32,1.41,2.69,2.76,4.07,4.1.82.8,1.64,1.6,2.45,2.42a3.18,3.18,0,0,0,2.2,1.13,3.23,3.23,0,0,0,2.23-1.17L56.38,73.07a2.54,2.54,0,0,0,2.9-.48l.64-.64L73.64,85.68l3.17,5.8a2.78,2.78,0,0,0,.21.27h0a2.47,2.47,0,0,0,.79.72l7.32,4.09a2.54,2.54,0,0,0,1.25.33,2.61,2.61,0,0,0,1.82-.75l2.61-2.62a2.58,2.58,0,0,0,.43-3.06l-4.09-7.32a2.45,2.45,0,0,0-.72-.78h0a.26.26,0,0,0-.11-.07,1.18,1.18,0,0,0-.18-.13L86,82.1l0,0L80.33,79,66.61,65.26l.63-.64a2.51,2.51,0,0,0,.32-3.13l6-6.15a6,6,0,0,1,2.83-1.81,13.1,13.1,0,0,1,1.91-.14,10.09,10.09,0,0,1,4.54,1c2,1.07,4.09,2.5,2.75,6a1.32,1.32,0,0,0,0,.81c.29,1,1.46,2.48,3.41,4.16a1.08,1.08,0,0,0,.73.28,1.19,1.19,0,0,0,.58-.15,7.64,7.64,0,0,0,2.4-1.08,21.34,21.34,0,0,0,4.86-4.71A7.32,7.32,0,0,0,98.66,57a1.21,1.21,0,0,0-.27-1C96.51,53.7,94.9,52.5,93.59,52.39Zm-63.83-6s-3.32-2.94-.75-6.22a61.91,61.91,0,0,1,5.84-5.84,4.12,4.12,0,0,1,2.6-1,5.55,5.55,0,0,1,3.73,1.86l.73.73c4.91,4.92,9.74,9.76,10.29,10.3,1.75,6,4.16,9.84,7.13,11.46a6.46,6.46,0,0,0,3.18.82c.52,0,.89-.06,1.07,0L53.46,68.63h0l-.4.1a5.52,5.52,0,0,0-.65-4,9.35,9.35,0,0,0-2-2.51h0c-1.77-1.59-4.67-3.29-9.46-4.71C40.32,56.92,33.71,50.34,29.76,46.41Zm5.35,45.05c-.26.26-.44.38-.42.42a1.92,1.92,0,0,1-.5-.4L31.72,89c-1.35-1.32-2.7-2.64-4-4-.09-.1-.18-.35-.21-.31a1.73,1.73,0,0,1,.39-.45l21.5-19.5a6.49,6.49,0,0,1,.82,1.15A3.28,3.28,0,0,1,50.68,68a2.55,2.55,0,0,0,1.07,3,2.48,2.48,0,0,0,1.35.39,2.46,2.46,0,0,0,1.1-.28l.31.31ZM59.05,69.33h0l-1.5,1.51a.11.11,0,0,1-.14,0l-.57-.58h0l-.75-.76,8.07-8.07,1.36,1.44L64,64.39h0L59.8,68.58Zm30,22.47-2.72,2.63-6.56-3.68,5.62-5.63ZM78.71,80.86a1.14,1.14,0,0,0,.28.21l4.5,2.47-5.3,5.31-2.46-4.51a1.86,1.86,0,0,0-.21-.28L61.67,70.21l.57-.57.08-.08h0L64.86,67ZM65.9,59.66l-.09-.09A2.57,2.57,0,0,0,62.74,56a3.22,3.22,0,0,1-2.23-.44,5.48,5.48,0,0,1-.57-.37l6.13-5.56,4.85,4.84Zm29.62-1.53a18.18,18.18,0,0,1-4.28,4.15,5.85,5.85,0,0,1-1.26.65,10,10,0,0,1-2-2.21c1.81-5.45-2.61-7.77-4.08-8.54a12.44,12.44,0,0,0-5.69-1.26,16.44,16.44,0,0,0-2.25.16,6.76,6.76,0,0,0-3.31,1.68l-4.9-4.89c1.89-2.29,3.4-4.77,3-7.52-.45-3.12-3.12-5.24-7-7.47A43.16,43.16,0,0,0,55.5,29.5c9.79-1,17,1.62,24.16,8.72l1.6,1.59a26.59,26.59,0,0,1,2.31,2.42c1.73,2.19,2.29,3,2.24,4.73-.18,6.73,3.33,7.55,7.58,7.89,0,0,.86.13,2.69,2.19A4.86,4.86,0,0,1,95.52,58.13Z"/></g></g></svg>