<svg xmlns="http://www.w3.org/2000/svg" viewBox="0 0 43.44 48.56"><defs><style>.cls-1{fill:#fff;stroke:#fff;stroke-miterlimit:10;}</style></defs><title>easyAsset 11</title><g id="Layer_2" data-name="Layer 2"><g id="Layer_1-2" data-name="Layer 1"><path class="cls-1" d="M41.87,26.52a3.65,3.65,0,0,0-3-1.05,3.75,3.75,0,0,0-4.1-4.55,3.18,3.18,0,0,0,.08-.81,3.83,3.83,0,0,0-3.44-3.81l6.48-6.48a3.82,3.82,0,1,0-5.4-5.41L19.72,17.22a6.48,6.48,0,0,1-3,1.74,4.71,4.71,0,0,1-2.36,0c-.67-1-1.3-1.89-1.44-2.08-1.38-1.88-2.65-3.8-4.13-6.1S5.3,7.41,3.46,8A3.91,3.91,0,0,0,2,8.88,3.66,3.66,0,0,0,.5,11.63a6.17,6.17,0,0,0,1.28,2.75c.42.65.93,1.46,1.49,2.47a16.46,16.46,0,0,1,.84,1.91l.33.81a30.31,30.31,0,0,1,1.11,3.05,12.15,12.15,0,0,1-.06,5.56,19.14,19.14,0,0,0-.38,4.26,14.6,14.6,0,0,0,1.57,5.65A18.32,18.32,0,0,0,10.2,43a17.1,17.1,0,0,0,9.35,5,13.11,13.11,0,0,0,1.88.14,10.42,10.42,0,0,0,2.77-.35,8.56,8.56,0,0,0,3.86-2.21l10.7-10.7,3.11-3.11A3.65,3.65,0,0,0,41.87,26.52ZM36.92,23a2.33,2.33,0,0,1,0,3.31l-.22.23-3.33,3.33A2.34,2.34,0,1,1,30,26.56l0,0L33.61,23A2.33,2.33,0,0,1,36.92,23ZM33.5,20.1a2.45,2.45,0,0,1-.71,1.72l-1.95,1.95-1.78,1.78-.17.17a2.43,2.43,0,0,1-3.43-3.43l1.65-1.65,2.25-2.25A2.43,2.43,0,0,1,33.5,20.1ZM27.07,44.51a8.26,8.26,0,0,1-7.31,2A15.7,15.7,0,0,1,11.19,42c-.25-.25-.49-.51-.72-.76S9.38,39.81,9,39.27a17.88,17.88,0,0,1-1-1.8,13.32,13.32,0,0,1-1.42-5.11,17.19,17.19,0,0,1,.36-3.95,13.43,13.43,0,0,0,0-6.18A29.64,29.64,0,0,0,5.73,19c-.11-.26-.21-.53-.32-.79a16.82,16.82,0,0,0-.91-2.06C3.92,15.13,3.38,14.3,3,13.63A5.78,5.78,0,0,1,1.9,11.55c0-.3.1-.73,1.09-1.64a2.4,2.4,0,0,1,.9-.57C5.58,8.79,7,10.7,7.58,11.55c1.5,2.32,2.78,4.26,4.19,6.18h0c.72,1,2.65,3.76,3,5.08a.7.7,0,1,0,1.36-.32,8.45,8.45,0,0,0-.84-2,6.59,6.59,0,0,0,1.77-.2,7.88,7.88,0,0,0,3.69-2.11L33.52,5.4A2.43,2.43,0,0,1,37,8.83L28.37,17.4l-3.9,3.9A3.82,3.82,0,0,0,28,27.74a3.74,3.74,0,0,0,3.25,4.17,4,4,0,0,0,1.3-.06,3.64,3.64,0,0,0,1.05,2.95,3.69,3.69,0,0,0,2.15,1.05ZM40.88,30.7h0l-1.46,1.46-1.65,1.65a2.26,2.26,0,1,1-3.19-3.19l3.11-3.11a2.26,2.26,0,0,1,3.19,3.19Z"/><path class="cls-1" d="M13.23,8.36a.7.7,0,0,0,1-.94l0,0-3.5-3.53a.7.7,0,1,0-1,1Z"/><path class="cls-1" d="M15.93,6.22a.72.72,0,0,0,.69.55l.15,0a.71.71,0,0,0,.53-.84h0L16.2,1.06a.7.7,0,1,0-1.37.28v0Z"/><path class="cls-1" d="M19.79,6.73a.7.7,0,0,0,.89-.43l1.63-4.7a.7.7,0,0,0-.43-.89.7.7,0,0,0-.89.43h0l-1.63,4.7A.69.69,0,0,0,19.79,6.73Z"/><path class="cls-1" d="M22.36,8.31a.69.69,0,0,0,1,.1l3.87-3.12a.7.7,0,0,0,.11-1,.71.71,0,0,0-1-.11h0L22.46,7.33A.69.69,0,0,0,22.36,8.31Z"/></g></g></svg>