<svg xmlns="http://www.w3.org/2000/svg" viewBox="0 0 58.63 58.67"><defs><style>.cls-1{fill:#6cbd45;}.cls-2{fill:#fff;}</style></defs><title>3electAsset 15</title><g id="Layer_2" data-name="Layer 2"><g id="Layer_1-2" data-name="Layer 1"><ellipse class="cls-1" cx="45.85" cy="19.2" rx="11.05" ry="11.5"/><path class="cls-2" d="M7.55,38.69,9,27a9.89,9.89,0,0,0-2.73-.1v2.06c0,.62-.22,1.1-.91,1.11s-.94-.44-.93-1.09,0-1.29,0-1.92A2.36,2.36,0,0,0,3,26.86c-.63,0-1.11-.22-1.11-.91S2.36,25,3,25H8.43c.2,0,.4,0,.58,0a1.16,1.16,0,0,0,.32-.87Q10,19,10.63,13.83c.21-1.72.31-1.83,2-1.83,3.15,0,6.3,0,9.45,0,1,0,1.39.39,1.51,1.36.43,3.6.94,7.19,1.36,10.79.08.71.34.91,1,.89,1.71,0,3.42,0,5.13,0,.69,0,1.39,0,1.38.95s-.67.9-1.33.89a2.19,2.19,0,0,0-1.22.17c0,.62,0,1.29,0,2s-.26,1.09-.95,1.07-.88-.45-.89-1,0-1.36,0-2.06a13.06,13.06,0,0,0-2.73-.09c.49,4,1,7.86,1.46,11.82h6.24c.65,0,1.32,0,1.35.87s-.65,1-1.36,1H31.26c-.33.34-.16.7-.23,1-.15.78.49,2.11-.89,2.12s-.76-1.37-.93-2.17c-.06-.29.06-.61-.16-.93H27.11l1,8a1.76,1.76,0,0,0,1.08.16H42.41c1.87,0,2.47-.6,2.48-2.44V37a2.82,2.82,0,0,0-1.47-.16c-1.52,0-2.19-.71-2.21-2.21,0-.82,0-1.64,0-2.46a3.45,3.45,0,0,0-1.79-3.32,11.55,11.55,0,0,1-5.6-10.63,12,12,0,0,1,24-.14,11.44,11.44,0,0,1-5.54,10.75,3.55,3.55,0,0,0-1.85,3.4c0,.81,0,1.64,0,2.46a1.81,1.81,0,0,1-2,2c-.51,0-1,0-1.49,0-.33.38-.2.77-.2,1.13,0,2.87,0,5.75,0,8.62a3.7,3.7,0,0,1-4,4H28.39c.21,2.07.4,4,.59,6,.05.42.37.43.69.43h2.26c.59,0,1,.27,1,.9s-.39.92-1,.92h-7.8c-.6,0-1-.28-1-.92s.44-.88,1-.9a3.71,3.71,0,0,0,1.46-.23l-8.55-7.75L8.56,56.61l.07.24c.55,0,1.11,0,1.67,0s1,.27,1,.92-.42.89-1,.89H2.57c-.58,0-1-.2-1-.86s.44-.94,1.06-1H3c2.21,0,2.19,0,2.46-2.16q.86-6.76,1.73-13.53c0-.17,0-.33,0-.54a6.08,6.08,0,0,0-1.95,0,9.18,9.18,0,0,0-.1,2.08c0,.64-.29,1.07-1,1s-.86-.47-.85-1.06V40.53a11.69,11.69,0,0,1-1.34,0c-.76-.09-2,.43-2-.89s1.28-.89,2.06-.92C3.87,38.65,5.68,38.69,7.55,38.69Zm39.18-8.55h1.71a.59.59,0,0,0,.64-.38A6.67,6.67,0,0,1,51.73,27a10,10,0,0,0,3.46-12.37A10,10,0,0,0,44,8.59a10.2,10.2,0,0,0-8.16,8.09,9.81,9.81,0,0,0,4.35,10.48,6.47,6.47,0,0,1,2.08,1.95c.73,1.19,1.08,1.3,2.6.83V29c0-2.74,0-5.48,0-8.21,0-.51-.26-.62-.66-.73a5.25,5.25,0,0,1-2.46-1.41.85.85,0,0,1-.16-1.27.88.88,0,0,1,1.34-.1c2.27,1.59,3.46,1.6,5.65,0,.5-.35,1-.42,1.36.05s.23.95-.19,1.35A5.07,5.07,0,0,1,47.4,20a.74.74,0,0,0-.68.92c0,.41,0,.82,0,1.23ZM27.09,55.38,25.34,41.45l-6.77,6.14Zm-19.8,0,8.52-7.78L9,41.45Zm9.9-9,6.41-5.78H10.77Zm6.25-7.76-6.35-5.44-6.25,5.44ZM23.6,27.7l-5,4.3,6.23,5.31Zm-14,9.61L15.81,32l-5-4.29Zm7.73-16.8-4.87,4.36h9.72ZM12.5,26.83l4.6,3.87,4.59-3.87Zm-.08-11.89-1,7.63,4.36-4.08Zm6.11,3.61L23,22.79,22,15ZM43,34.75h5.55A12.24,12.24,0,0,0,48.54,32H43.06A10.25,10.25,0,0,0,43,34.75Zm-26-18.12L20,13.9H14.08Z"/><path class="cls-2" d="M39.47,1.28c1,.35.94,1.52,1.42,2.32.25.42.42.9,0,1.3s-1.09.46-1.44-.19a18,18,0,0,1-1-2.25C38.22,1.86,38.69,1.28,39.47,1.28Z"/><path class="cls-2" d="M46.71,2.12a9.92,9.92,0,0,1,0,1.22.81.81,0,0,1-.83.75.82.82,0,0,1-.95-.74,24.29,24.29,0,0,1,0-2.56A.8.8,0,0,1,45.8,0a.83.83,0,0,1,.9.79,11.8,11.8,0,0,1,0,1.33Z"/><path class="cls-2" d="M53.17,2.5c-.3.66-.64,1.51-1.07,2.31A.76.76,0,0,1,51,5.09a.79.79,0,0,1-.49-1A22.72,22.72,0,0,1,51.6,1.68a.79.79,0,0,1,1.08-.29C53.07,1.55,53.21,1.89,53.17,2.5Z"/><path class="cls-2" d="M35.56,8.32a.85.85,0,0,1-.65-.26C34.35,7.51,33.79,7,33.25,6.4a.83.83,0,0,1,0-1.27.83.83,0,0,1,1.28,0c.56.54,1.12,1.1,1.65,1.67a.77.77,0,0,1,.17.94A.94.94,0,0,1,35.56,8.32Z"/><path class="cls-2" d="M56.12,8.41a.94.94,0,0,1-.84-.49.77.77,0,0,1,.09-1c.58-.62,1.19-1.22,1.8-1.8a.81.81,0,0,1,1-.11.86.86,0,0,1,.5.82A6,6,0,0,1,56.12,8.41Z"/></g></g></svg>