<svg xmlns="http://www.w3.org/2000/svg" viewBox="0 0 49.97 79.62"><defs><style>.cls-1{fill:#fff;}</style></defs><title>jobAsset 6</title><g id="Layer_2" data-name="Layer 2"><g id="Layer_1-2" data-name="Layer 1"><path class="cls-1" d="M36.05,45.91l-.1-.06-.06,0a25,25,0,0,0-21.75,0,1.4,1.4,0,0,0-.3.15h0A25,25,0,0,0,0,68.3a1.56,1.56,0,0,0,.11.57l0,.07A1.5,1.5,0,0,0,1,70.84l25.28,8.7a1.36,1.36,0,0,0,.49.08,1.42,1.42,0,0,0,.61-.13l21.7-9.82A1.49,1.49,0,0,0,50,68.3,25,25,0,0,0,36.05,45.91Zm-2.92,2c-1.17,1.68-3.64,4.34-7.5,4.34s-7-2.7-8.54-4.44a21.92,21.92,0,0,1,16,.1ZM3,68.3A22,22,0,0,1,14.26,49.12c1.52,1.83,5,5.37,9.87,6V75.62L3,68.35Zm24.13,8V55.13c4.6-.62,7.44-4,8.72-5.91A22,22,0,0,1,47,67.35Z"/><path class="cls-1" d="M6.46,20.46H9.05a16.78,16.78,0,1,0,32.72,5.25,16.59,16.59,0,0,0-.85-5.25H43.8a1.5,1.5,0,0,0,0-3H42.58a17.59,17.59,0,0,0-35.18,0H6.46a1.5,1.5,0,0,0,0,3Zm32.31,5.25a13.79,13.79,0,1,1-27.57,0,13.6,13.6,0,0,1,1.06-5.25H37.71A13.64,13.64,0,0,1,38.77,25.71ZM17.3,5.21V7.43a1.5,1.5,0,0,0,3,0V3.79A14.29,14.29,0,0,1,25,3a14.68,14.68,0,0,1,4.76.81V7.43a1.5,1.5,0,0,0,3,0V5.26a14.58,14.58,0,0,1,6.83,12.2H10.4A14.6,14.6,0,0,1,17.3,5.21Z"/></g></g></svg>