<svg xmlns="http://www.w3.org/2000/svg" viewBox="0 0 148.2 124.21">
    <defs>
        <style>
        .cls-1 {
            fill: #1c3b6a;
        }

        .cls-2 {
            fill: #6cbd45;
        }
        </style>
    </defs>
    <title>logoAsset 3</title>
    <g id="Layer_2" data-name="Layer 2">
        <g id="Layer_1-2" data-name="Layer 1">
            <path class="cls-1" d="M.56,95.29V23.1H18.89V95.29Z" />
            <path class="cls-1" d="M53.74,56.89V23.1h16.7V95.29H53l-5.18-19L44,61.12h-.57V95.29H26.67V23.1h16.8l5.37,18.15,4.32,15.64Z" />
            <path class="cls-1" d="M140,95.29H117.19L114.7,77.05l-2.88-22h-.48l-2.59,22.37-2.21,17.85H83.79L75.63,23.1H93.39l1.92,27,1.63,23.71h.38L99.63,50l2.78-26.88h18.72l2,26.59,2,24.58h.39l2.3-24.19,2.59-27H148.2Z" />
            <path class="cls-1" d="M15.16,117.15a8.89,8.89,0,0,1-.52,3.25,5.5,5.5,0,0,1-1.49,2.19,6,6,0,0,1-2.37,1.24,12.16,12.16,0,0,1-3.16.38,9.41,9.41,0,0,1-4-.71,5.45,5.45,0,0,1-2.24-1.88,6.37,6.37,0,0,1-1-2.63,20.94,20.94,0,0,1-.21-3v-1.8H6.36v3.33c0,.26,0,.51,0,.77a2.58,2.58,0,0,0,.16.73,1.29,1.29,0,0,0,.36.56,1,1,0,0,0,.63.2,1.09,1.09,0,0,0,.67-.19,1.16,1.16,0,0,0,.4-.48,2.31,2.31,0,0,0,.2-.66,6.09,6.09,0,0,0,0-.72A7.86,7.86,0,0,0,8.71,116a3.17,3.17,0,0,0-.57-1.25A5,5,0,0,0,7,113.66c-.48-.34-1.1-.75-1.86-1.24-.91-.58-1.68-1.12-2.33-1.62a7.57,7.57,0,0,1-1.6-1.6,5.48,5.48,0,0,1-.92-2,10.87,10.87,0,0,1-.3-2.76,8.79,8.79,0,0,1,.54-3.24A5.73,5.73,0,0,1,2.07,99a6.32,6.32,0,0,1,2.35-1.29,10.16,10.16,0,0,1,3-.42,9.25,9.25,0,0,1,3.83.66,5.43,5.43,0,0,1,2.17,1.71,5.71,5.71,0,0,1,1,2.35,15.36,15.36,0,0,1,.22,2.62v1.5H8.45V103.8a4.66,4.66,0,0,0-.21-1.45.87.87,0,0,0-.9-.64.87.87,0,0,0-.91.59,3.63,3.63,0,0,0-.2,1.22,4.8,4.8,0,0,0,.24,1.65,3.18,3.18,0,0,0,.75,1.15,7.49,7.49,0,0,0,1.28,1l1.9,1.18a17.22,17.22,0,0,1,2.54,1.9,7.27,7.27,0,0,1,1.44,1.84,5.94,5.94,0,0,1,.64,2.14A22.67,22.67,0,0,1,15.16,117.15Z" />
            <path class="cls-1" d="M20,123.83V97.68h11.1v4.83H26.67v5.11h4.18v4.91H26.67v6.39h4.91v4.91Z" />
            <path class="cls-1" d="M48.79,110a3.47,3.47,0,0,1,1.91,1.46,5.38,5.38,0,0,1,.49,2.54v7.3c0,.49,0,.93,0,1.33a2.46,2.46,0,0,0,.41,1.18H45.52a3.1,3.1,0,0,1-.36-1.17,11.72,11.72,0,0,1-.09-1.54v-6a4.42,4.42,0,0,0-.46-2.34,2.06,2.06,0,0,0-1.73-.79v11.83H36.24V97.64h9a5.79,5.79,0,0,1,4.44,1.62q1.51,1.62,1.51,5.2a10.1,10.1,0,0,1-.5,3.58,3.34,3.34,0,0,1-1.9,1.84Zm-5.91-7.89V108a6.09,6.09,0,0,0,1.15-.14,1.06,1.06,0,0,0,.65-.43,2.26,2.26,0,0,0,.3-.92,11,11,0,0,0,.09-1.57,10.32,10.32,0,0,0-.07-1.37,1.82,1.82,0,0,0-.29-.86,1.19,1.19,0,0,0-.63-.43,4.23,4.23,0,0,0-1.13-.12Z" />
            <path class="cls-1" d="M69.14,123.83H59.05L55.23,97.68h7L63.09,108l.79,10h.25l.66-10.08.73-10.26h7Z" />
            <path class="cls-1" d="M76.75,123.83V97.68h6.64v26.15Z" />
            <path class="cls-1" d="M104.33,112.94v3.86a8.47,8.47,0,0,1-.7,3.71,5.89,5.89,0,0,1-1.82,2.26,6.91,6.91,0,0,1-2.58,1.13,13.55,13.55,0,0,1-2.9.31,10.29,10.29,0,0,1-3.67-.57A5.77,5.77,0,0,1,90.3,122,6.51,6.51,0,0,1,89,119.41a13.35,13.35,0,0,1-.38-3.37V104.88c0-.45,0-.94.07-1.5a7.08,7.08,0,0,1,.34-1.67,7.8,7.8,0,0,1,.77-1.63,4.51,4.51,0,0,1,1.35-1.41,7.25,7.25,0,0,1,2.13-1,10.21,10.21,0,0,1,3-.39,12.11,12.11,0,0,1,3.32.42,6.36,6.36,0,0,1,2.52,1.34,5.86,5.86,0,0,1,1.6,2.36,9.71,9.71,0,0,1,.56,3.47v2.71H97.69v-3.93a5.07,5.07,0,0,0,0-.66,1.83,1.83,0,0,0-.17-.63,1.54,1.54,0,0,0-.37-.47.88.88,0,0,0-.6-.19,1,1,0,0,0-1,.64,3.86,3.86,0,0,0-.22,1.27v14c0,.21,0,.44,0,.68a2,2,0,0,0,.18.66,1.32,1.32,0,0,0,.38.49,1,1,0,0,0,.63.19.92.92,0,0,0,.93-.68,3.78,3.78,0,0,0,.25-1.34v-4.73Z" />
            <path class="cls-1" d="M109.48,123.83V97.68h11.09v4.83h-4.45v5.11h4.17v4.91h-4.17v6.39H121v4.91Z" />
            <path class="cls-1" d="M140.29,117.15a8.89,8.89,0,0,1-.52,3.25,5.42,5.42,0,0,1-1.5,2.19,6,6,0,0,1-2.36,1.24,12.24,12.24,0,0,1-3.17.38,9.36,9.36,0,0,1-4-.71,5.39,5.39,0,0,1-2.24-1.88,6.38,6.38,0,0,1-1-2.63,21,21,0,0,1-.2-3v-1.8h6.15v3.33a6.62,6.62,0,0,0,0,.77,3,3,0,0,0,.15.73,1.23,1.23,0,0,0,.37.56,1,1,0,0,0,.62.2,1.1,1.1,0,0,0,.68-.19,1.16,1.16,0,0,0,.4-.48,2.3,2.3,0,0,0,.19-.66,4.51,4.51,0,0,0,.05-.72,8.58,8.58,0,0,0-.15-1.77,3.33,3.33,0,0,0-.58-1.25,4.64,4.64,0,0,0-1.13-1.06c-.47-.34-1.09-.75-1.86-1.24s-1.68-1.12-2.33-1.62a7.82,7.82,0,0,1-1.6-1.6,5.83,5.83,0,0,1-.92-2,10.91,10.91,0,0,1-.29-2.76,8.79,8.79,0,0,1,.54-3.24A5.52,5.52,0,0,1,127.2,99a6.36,6.36,0,0,1,2.34-1.29,10.27,10.27,0,0,1,3-.42,9.2,9.2,0,0,1,3.82.66,5.47,5.47,0,0,1,2.18,1.71,5.57,5.57,0,0,1,1,2.35,15.37,15.37,0,0,1,.23,2.62v1.5h-6.19V103.8a4.66,4.66,0,0,0-.21-1.45.87.87,0,0,0-.91-.64.86.86,0,0,0-.9.59,3.64,3.64,0,0,0-.21,1.22,4.55,4.55,0,0,0,.25,1.65,3.29,3.29,0,0,0,.74,1.15,8,8,0,0,0,1.29,1l1.89,1.18a16.21,16.21,0,0,1,2.54,1.9,7.11,7.11,0,0,1,1.45,1.84,6.14,6.14,0,0,1,.64,2.14A24.85,24.85,0,0,1,140.29,117.15Z" />
            <rect class="cls-2" x="0.56" y="95.29" width="139.48" height="2" />
            <circle class="cls-2" cx="10" cy="10" r="10" />
        </g>
    </g>
</svg>