<svg xmlns="http://www.w3.org/2000/svg" viewBox="0 0 61.87 54.13"><defs><style>.cls-1{fill:#fff;}.cls-2{fill:#6cbd45;}</style></defs><title>4manufAsset 16</title><g id="Layer_2" data-name="Layer 2"><g id="Layer_1-2" data-name="Layer 1"><path class="cls-1" d="M61.73,30.93a7.75,7.75,0,0,0-7.6-6.28H50.27V19.33a1.94,1.94,0,0,0-1.94-1.93H36.73a1.93,1.93,0,0,0-1.93,1.93v5.32H32.87V19.33a1.94,1.94,0,0,0-1.94-1.93H27.55V13.26a1.92,1.92,0,0,0,1-1.66V8.7a1.94,1.94,0,0,0,1.93-1.93V1.93A1.94,1.94,0,0,0,28.52,0H20.78a1.9,1.9,0,0,0-1.26.48H4.83A1.94,1.94,0,0,0,2.9,2.42V18a1.94,1.94,0,0,0-1.45,1.87v4.83H1a1,1,0,0,0-.92.66H0V39H0a1.11,1.11,0,0,0,0,.19,1,1,0,0,0,1,1H3.38V53.17a1,1,0,0,0,1.94,0V49.3H53.65v3.87a1,1,0,0,0,1.93,0V40A7.72,7.72,0,0,0,61.73,30.93Zm-25-11.6h11.6v5.32H36.73Zm-5.8,0v5.32H19.33V19.33ZM22.72,11.6V8.7h3.86v2.9Zm2.9,1.93V17.4H23.68V13.53ZM20.78,1.93h7.74V6.77H20.78Zm0,6.77v2.9a1.9,1.9,0,0,0,1,1.66V17.4H19.33a1.94,1.94,0,0,0-1.93,1.93v5.32H12.08V19.82A1.93,1.93,0,0,0,10.63,18V8.22h8.89A1.9,1.9,0,0,0,20.78,8.7ZM4.83,2.42h14V6.28H8.7v11.6H4.83ZM3.38,19.82h6.77v4.83H3.38ZM53.65,47.37H5.32V40.12H53.65Zm.48-9.19H1.93V26.58h52.2a5.8,5.8,0,0,1,0,11.6Z"/><path class="cls-1" d="M54.13,28.52A3.87,3.87,0,1,0,58,32.38,3.86,3.86,0,0,0,54.13,28.52Zm0,5.8a1.94,1.94,0,1,1,1.94-1.94A1.93,1.93,0,0,1,54.13,34.32Z"/><circle class="cls-2" cx="10.08" cy="32.38" r="2.23"/><circle class="cls-2" cx="17.22" cy="32.38" r="2.23"/><circle class="cls-2" cx="24.36" cy="32.38" r="2.23"/><circle class="cls-2" cx="31.12" cy="32.38" r="2.23"/><circle class="cls-2" cx="38.26" cy="32.38" r="2.23"/><circle class="cls-2" cx="45.4" cy="32.38" r="2.23"/></g></g></svg>