<svg xmlns="http://www.w3.org/2000/svg" viewBox="0 0 81.94 82.06"><defs><style>.cls-1{fill:#fff;}</style></defs><title>rabAsset 5</title><g id="Layer_2" data-name="Layer 2"><g id="Layer_1-2" data-name="Layer 1"><path class="cls-1" d="M80.5,73.43c-2.29-3.49-20.31-21.52-21.07-22.28a1.49,1.49,0,0,0-2.1,0l-.76.72a1.53,1.53,0,0,0-.38-.68l-3-3a29.78,29.78,0,1,0-41.41,5.32,1.33,1.33,0,0,0,.3.23,29.64,29.64,0,0,0,17.7,5.85h.52a29.62,29.62,0,0,0,17.38-6l3,3a1.45,1.45,0,0,0,.5.33l-.61.59a1.5,1.5,0,0,0,0,2.15L65,74.12c.86.95,7.36,7.94,12.66,7.94a4.94,4.94,0,0,0,3.12-1,1.54,1.54,0,0,0,.28-.29C81.18,80.6,83.28,77.65,80.5,73.43Zm-59-29A13,13,0,0,0,28.78,49v7.59A26.65,26.65,0,0,1,14.69,51.9,16.66,16.66,0,0,1,21.45,44.48ZM25,13.39a1.5,1.5,0,0,0,1.5-1.5V9.32a10.93,10.93,0,0,1,6.6,0v2.55a1.5,1.5,0,0,0,3,0v-1a10.87,10.87,0,0,1,4.56,8.42H18.9a10.91,10.91,0,0,1,4.61-8.47v1.08A1.5,1.5,0,0,0,25,13.39ZM20.2,22.28H39.37a10.29,10.29,0,1,1-19.17,0ZM35.53,43.23a6.7,6.7,0,0,1-5.25,2.85,8.77,8.77,0,0,1-6-2.92,16.41,16.41,0,0,1,5.46-.95A16.77,16.77,0,0,1,35.53,43.23Zm-3.75,5.71a10.22,10.22,0,0,0,6.5-4.4,16.65,16.65,0,0,1,6.33,6.78,1.46,1.46,0,0,0,.39.49,26.59,26.59,0,0,1-13.22,4.68ZM3,29.79A26.79,26.79,0,1,1,47.3,50a.08.08,0,0,0,0-.05A19.54,19.54,0,0,0,30.4,39.23,13.28,13.28,0,0,0,43.07,26a13.1,13.1,0,0,0-.55-3.7h1.77a1.5,1.5,0,0,0,0-3h-.62a13.89,13.89,0,0,0-27.77,0h-.4a1.5,1.5,0,0,0,0,3H17A13.46,13.46,0,0,0,16.5,26,13.29,13.29,0,0,0,29.2,39.23a19.52,19.52,0,0,0-7.77,1.88,1.38,1.38,0,0,0-.43.19l-.05,0A19.71,19.71,0,0,0,12.27,50,26.75,26.75,0,0,1,3,29.79ZM50,51.64c.42-.39.83-.79,1.22-1.2L53,52.23l-1.21,1.21ZM78.75,78.79C76.06,80.36,69.9,75,67.2,72.05L53.8,58.65l4.54-4.34c5.76,5.78,18,18.25,19.65,20.77C79.29,77.05,78.93,78.36,78.75,78.79Z"/></g></g></svg>