<svg xmlns="http://www.w3.org/2000/svg" viewBox="0 0 36.76 43.66"><defs><style>.cls-1{fill:#fff;}</style></defs><title>safeAsset 10</title><g id="Layer_2" data-name="Layer 2"><g id="Layer_1-2" data-name="Layer 1"><path class="cls-1" d="M36.73,11.22c0-1.15-.06-2.31-.06-3.36a1.53,1.53,0,0,0-1.54-1.54C28.62,6.32,23.6,4.44,19.47.41a1.62,1.62,0,0,0-2.16,0c-4.13,4-9.1,5.91-15.66,5.91A1.53,1.53,0,0,0,.11,7.86c0,1.1,0,2.21-.06,3.36-.22,11-.5,26,17.82,32.33a1.73,1.73,0,0,0,.49.11,1.8,1.8,0,0,0,.5-.11C37.17,37.2,36.9,22.2,36.73,11.22ZM18.42,40.51C2.75,34.83,3,22.31,3.19,11.33c0-.66,0-1.32.06-1.93A23.7,23.7,0,0,0,18.47,3.67,23.44,23.44,0,0,0,33.7,9.4c0,.61,0,1.27,0,1.93C33.86,22.31,34.08,34.78,18.42,40.51Z"/><path class="cls-1" d="M23.66,16.52l-7.34,7.34-3.14-3.15A1.52,1.52,0,0,0,11,22.86l4.24,4.25a1.55,1.55,0,0,0,1.11.44,1.73,1.73,0,0,0,1.1-.44l8.44-8.44a1.49,1.49,0,0,0,0-2.15A1.62,1.62,0,0,0,23.66,16.52Z"/></g></g></svg>