<svg xmlns="http://www.w3.org/2000/svg" viewBox="0 0 63.63 55.58"><defs><style>.cls-1{fill:#fff;}.cls-2{fill:#6cbd45;}</style></defs><title>5warehouseAsset 17</title><g id="Layer_2" data-name="Layer 2"><g id="Layer_1-2" data-name="Layer 1"><path class="cls-1" d="M63.06,17.83l-7.29-4.27h0L32.44.08h-.08A.08.08,0,0,1,32.28,0h-.69c-.08,0-.08,0-.08.08h0L7.87,13.64h0L.58,17.91a1.13,1.13,0,0,0-.39,1.62,1.13,1.13,0,0,0,1,.55,1.78,1.78,0,0,0,.62-.16l5.5-3.25V54.41a1.21,1.21,0,0,0,1.17,1.17H39.57a1.2,1.2,0,0,0,1.16-1.17V41.86a1.2,1.2,0,0,0-1.16-1.17H29.73V35.58a1.2,1.2,0,0,0-1.17-1.16H18.8V23H44.92V54.41a1.2,1.2,0,0,0,1.16,1.17h9.15a1.2,1.2,0,0,0,1.16-1.17V16.67l5.5,3.25a1.45,1.45,0,0,0,.62.16,1.33,1.33,0,0,0,1-.55A1.44,1.44,0,0,0,63.06,17.83ZM27.4,46.9H18.8v-4h8.6Zm-8.6,2.32h8.6v4H18.8Zm19.61,4H29.73v-4h8.6v4Zm0-6.27H29.73v-4h8.6v4Zm-11-10.31v3.95H18.8V36.59ZM54,15.27v37.9H47.17V21.86A1.2,1.2,0,0,0,46,20.7H17.63a1.19,1.19,0,0,0-1.16,1.16V53.1H9.65V15.27l14.8-8.6L31.82,2.4l7.36,4.27Z"/><circle class="cls-2" cx="24.67" cy="15.52" r="2.23"/><circle class="cls-2" cx="31.81" cy="15.52" r="2.23"/><circle class="cls-2" cx="38.95" cy="15.52" r="2.23"/></g></g></svg>