<svg xmlns="http://www.w3.org/2000/svg" viewBox="0 0 52.83 63.19"><defs><style>.cls-1{fill:#6cbd45;}.cls-2{fill:#fff;}</style></defs><title>2weldersAsset 14</title><g id="Layer_2" data-name="Layer 2"><g id="Layer_1-2" data-name="Layer 1"><circle class="cls-1" cx="31.26" cy="47.02" r="6.38"/><path class="cls-2" d="M51.79,0H22.34a1,1,0,0,0-1,1V22.7l2.07,1.78V2.08H50.75V40.2H44a2.89,2.89,0,0,1,.15,2.08h7.64a1,1,0,0,0,1-1V1A1.07,1.07,0,0,0,51.79,0Z"/><path class="cls-2" d="M47,15.58V8.31a1,1,0,0,0-1-1H28.05a1,1,0,0,0-1,1v7.27a1,1,0,0,0,1,1H46A1,1,0,0,0,47,15.58Zm-2.08-1H29.09V9.42H45Z"/><path class="cls-2" d="M36.88,48.73a.73.73,0,0,0,.59.89l5.34,1.18H43a.75.75,0,0,0,.15-1.48l-5.34-1.19h-.15A.72.72,0,0,0,36.88,48.73Z"/><path class="cls-2" d="M35.62,52.14a.79.79,0,0,0-.67-.37,1,1,0,0,0-.44.15.73.73,0,0,0-.23,1l3,4.59a.76.76,0,0,0,.67.37,1,1,0,0,0,.44-.14.74.74,0,0,0,.23-1Z"/><path class="cls-2" d="M30.65,52.51H30.5a.72.72,0,0,0-.74.59l-1.19,5.34a.72.72,0,0,0,.6.89h.15a.72.72,0,0,0,.74-.59l1.18-5.34A.74.74,0,0,0,30.65,52.51Z"/><path class="cls-2" d="M27.24,51.25a.73.73,0,0,0,.22-1,.79.79,0,0,0-.67-.37,1,1,0,0,0-.44.15l-4.6,3a.72.72,0,0,0-.22,1,.76.76,0,0,0,.67.37,1.13,1.13,0,0,0,.44-.14Z"/><path class="cls-2" d="M20.79,44.2a.74.74,0,0,0-.75.6.73.73,0,0,0,.6.89L26,46.87h.15a.75.75,0,0,0,.14-1.48L20.93,44.2Z"/><path class="cls-2" d="M37.1,41.61l4.16-6a.74.74,0,0,0-.23-1,1,1,0,0,0-.44-.15.89.89,0,0,0-.59.3l-4.16,6a.73.73,0,0,0,.22,1,1.12,1.12,0,0,0,.45.14C36.73,42,37,41.83,37.1,41.61Z"/><path class="cls-2" d="M46.82,44.28h-.15l-7.19,1.26A.75.75,0,0,0,39.62,47h.15L47,45.76a.72.72,0,0,0,.59-.89A.79.79,0,0,0,46.82,44.28Z"/><path class="cls-2" d="M38.66,51.55a1,1,0,0,0-.44-.15,1,1,0,0,0-.6.29.73.73,0,0,0,.22,1l6,4.16a1.12,1.12,0,0,0,.45.14.9.9,0,0,0,.59-.29.73.73,0,0,0-.22-1Z"/><path class="cls-2" d="M33.1,54.51H33a.71.71,0,0,0-.59.89l1.26,7.2a.72.72,0,0,0,.74.59h.15a.72.72,0,0,0,.59-.89l-1.26-7.19A.72.72,0,0,0,33.1,54.51Z"/><path class="cls-2" d="M27.24,53.1a.89.89,0,0,0-.59.3l-4.16,6a.73.73,0,0,0,.22,1,1.12,1.12,0,0,0,.45.14.9.9,0,0,0,.59-.29l4.16-6a.74.74,0,0,0-.23-1A.52.52,0,0,0,27.24,53.1Z"/><path class="cls-2" d="M24.87,48.58a.73.73,0,0,0-.75-.59H24l-7.2,1.26a.75.75,0,0,0,.15,1.48h.15l7.19-1.26A.78.78,0,0,0,24.87,48.58Z"/><path class="cls-2" d="M20,38.12a1.15,1.15,0,0,0-.44-.15.91.91,0,0,0-.6.3.73.73,0,0,0,.22,1l6,4.15a1,1,0,0,0,.45.15.91.91,0,0,0,.59-.3.72.72,0,0,0-.22-1Z"/><path class="cls-2" d="M42.15,41a.79.79,0,0,0-.67-.37,1.14,1.14,0,0,0-.45.15l-4.59,3a.73.73,0,0,0-.23,1,.79.79,0,0,0,.67.37,1.14,1.14,0,0,0,.45-.15l4.59-3A.72.72,0,0,0,42.15,41Z"/><path class="cls-2" d="M32.65,45.17l-1.48-6.53a1,1,0,0,0-.45-.67l-7.56-6.23,1.11-1.33a.94.94,0,0,0,.22-.74,1,1,0,0,0-.37-.74L5.29,13.13a1.27,1.27,0,0,0-.75-.22h0a1,1,0,0,0-.74.37L.24,17.5a1,1,0,0,0-.22.75A1.06,1.06,0,0,0,.39,19L19.23,34.78a1.18,1.18,0,0,0,.67.23H20a1,1,0,0,0,.74-.37l.74-.89,7.27,5.93,1.34,5.93,1.41,3.27,1.26-.3ZM19.75,32.41,2.54,18l2.23-2.67L22,29.74Z"/></g></g></svg>