<svg xmlns="http://www.w3.org/2000/svg" viewBox="0 0 51.74 54.29"><defs><style>.cls-1{fill:#fff;}.cls-2{fill:#6cbd45;}</style></defs><title>6cleanAsset 18</title><g id="Layer_2" data-name="Layer 2"><g id="Layer_1-2" data-name="Layer 1"><path class="cls-1" d="M21.94,38.68a1.23,1.23,0,0,0-1.19-1,1.21,1.21,0,0,0-1.19,1,8.07,8.07,0,0,1-6.14,6.14,1.21,1.21,0,0,0-1,1.19,1.23,1.23,0,0,0,1,1.19,8,8,0,0,1,6.14,6.13,1.21,1.21,0,0,0,1.19,1,1.23,1.23,0,0,0,1.19-1,8,8,0,0,1,6.13-6.13A1.23,1.23,0,0,0,29,46a1.21,1.21,0,0,0-1-1.19A8,8,0,0,1,21.94,38.68ZM20.75,49.77A10.53,10.53,0,0,0,17,46a10.53,10.53,0,0,0,3.77-3.76A10.43,10.43,0,0,0,24.51,46,10.5,10.5,0,0,0,20.75,49.77Z"/><path class="cls-1" d="M8.37,36.31l-.16-.18a1.26,1.26,0,0,0-1.72,0c0,.06-.11.12-.15.18a2.12,2.12,0,0,0-.11.21.88.88,0,0,0-.07.23,1,1,0,0,0,0,.24,1.18,1.18,0,0,0,.09.46,1.34,1.34,0,0,0,.27.4,1.22,1.22,0,0,0,.86.36,1.2,1.2,0,0,0,.86-.36,1.34,1.34,0,0,0,.27-.4A1.18,1.18,0,0,0,8.57,37a1,1,0,0,0,0-.24.62.62,0,0,0-.07-.23A2,2,0,0,0,8.37,36.31Z"/><path class="cls-1" d="M38.24,11.15a1.15,1.15,0,0,0-.33-.34l-.21-.11-.23-.07a1.24,1.24,0,0,0-.47,0l-.23.07a1.29,1.29,0,0,0-.4.26l-.15.19a1.39,1.39,0,0,0-.11.21.88.88,0,0,0-.07.23.86.86,0,0,0,0,.23,1.19,1.19,0,0,0,.09.47,1.15,1.15,0,0,0,.26.4,1.25,1.25,0,0,0,.86.35,1.21,1.21,0,0,0,1.22-1.22,1.64,1.64,0,0,0,0-.23,1.55,1.55,0,0,0-.08-.23A.84.84,0,0,0,38.24,11.15Z"/><path class="cls-2" d="M31,45.34a1.46,1.46,0,0,0,.16.19,1.26,1.26,0,0,0,.85.36,1.2,1.2,0,0,0,.47-.1,1.31,1.31,0,0,0,.4-.26,1.39,1.39,0,0,0,.15-.19,1.28,1.28,0,0,0,.11-.2,1.19,1.19,0,0,0,.07-.23,1.45,1.45,0,0,0,0-.48,1,1,0,0,0-.07-.23A2.12,2.12,0,0,0,33,44a1.43,1.43,0,0,0-.15-.18,1.24,1.24,0,0,0-1.72,0A.93.93,0,0,0,31,44l-.11.21a2,2,0,0,0-.07.23,1.45,1.45,0,0,0,0,.48c0,.07,0,.15.07.23A1.28,1.28,0,0,0,31,45.34Z"/><path class="cls-2" d="M25.72,27.82a.65.65,0,0,0,.15.18,1,1,0,0,0,.19.16.78.78,0,0,0,.2.11,1.19,1.19,0,0,0,.23.07,1,1,0,0,0,.24,0,1.16,1.16,0,0,0,.86-.36.65.65,0,0,0,.15-.18.61.61,0,0,0,.11-.21,1.55,1.55,0,0,0,.08-.23,1.79,1.79,0,0,0,0-.24,2,2,0,0,0,0-.23,1.55,1.55,0,0,0-.08-.23.84.84,0,0,0-.11-.21.65.65,0,0,0-.15-.18.69.69,0,0,0-.18-.16L27.2,26A1,1,0,0,0,27,26a1.21,1.21,0,0,0-1.1.34.65.65,0,0,0-.15.18.84.84,0,0,0-.11.21.88.88,0,0,0-.07.23,1,1,0,0,0,0,.24.86.86,0,0,0,0,.23.88.88,0,0,0,.07.23A.84.84,0,0,0,25.72,27.82Z"/><path class="cls-1" d="M34.58,17.29a1.22,1.22,0,0,0-.95-1.19c-.51-.11-1-.24-1.5-.39l-.42-.14q-.53-.16-1-.36c-.17-.06-.34-.14-.5-.21l-.91-.4-.5-.25-.88-.49A19.93,19.93,0,0,1,23.16,10l-.49-.57c-.13-.15-.26-.32-.39-.48l-.45-.59-.36-.51-.4-.62c-.12-.18-.22-.36-.33-.54l-.36-.63-.3-.59c-.1-.21-.21-.42-.3-.63s-.19-.44-.28-.67-.17-.39-.24-.6-.18-.53-.27-.8-.11-.33-.16-.5c-.13-.44-.25-.89-.35-1.34A1.22,1.22,0,0,0,16.1,1,19.85,19.85,0,0,1,1,16.1a1.22,1.22,0,0,0-1,1.19H0a1.22,1.22,0,0,0,1,1.19c.5.11,1,.24,1.49.39l.43.14c.34.12.68.23,1,.36l.5.21c.3.13.61.26.91.41l.49.25c.3.15.59.31.88.48a19.77,19.77,0,0,1,4.74,3.84c.17.18.33.37.49.56l.39.48c.16.2.31.39.45.59s.24.34.36.52.28.4.41.61l.33.55c.12.21.24.41.35.63s.2.39.3.59.21.41.31.63l.27.66c.09.2.17.4.25.6s.18.53.26.8.12.33.17.5c.13.44.24.89.34,1.35a1.22,1.22,0,0,0,2.38,0A19.87,19.87,0,0,1,33.63,18.48a1.22,1.22,0,0,0,.95-1.19ZM8.2,18.77h0l-.08-.05c-.38-.22-.77-.44-1.17-.64l-.38-.19c-.39-.2-.79-.38-1.2-.55l-.09-.05a22.33,22.33,0,0,0,12-12c.14.32.28.64.43,1l.15.29c.1.22.21.43.32.64l.2.36c.1.19.21.37.32.56l.22.36c.11.18.22.36.34.53l.24.35.36.52.25.33.4.51.25.31.43.5.26.29.14.16.06.05a22.39,22.39,0,0,0,4.73,3.82h0l.07,0c.39.23.78.44,1.17.65.13.06.26.12.38.19.4.19.79.38,1.2.55l.1,0a22.36,22.36,0,0,0-12,12c-.13-.33-.28-.65-.43-1,0-.1-.09-.2-.14-.3l-.33-.64-.19-.35c-.11-.19-.21-.38-.32-.56l-.23-.37-.33-.53-.24-.35-.37-.51c-.08-.12-.16-.23-.25-.34l-.39-.51-.26-.31-.43-.5-.26-.29L13,22.64l-.05,0A22.69,22.69,0,0,0,8.2,18.77Z"/><path class="cls-1" d="M51.74,34.08a1.21,1.21,0,0,0-1-1.19,12.72,12.72,0,0,1-9.66-9.67,1.17,1.17,0,0,0-.06-.2,1.23,1.23,0,0,0-1.13-.76l-.21,0a1.23,1.23,0,0,0-1,.94c-.06.27-.13.54-.2.8l-.09.29c-.05.16-.11.32-.17.48l-.12.35-.18.41-.15.35c-.09.19-.18.37-.28.56l-.23.4c-.08.14-.16.28-.25.42l-.19.29L36.6,28l-.2.25A12.47,12.47,0,0,1,33,31.28c-.22.14-.45.27-.68.4l-.36.18-.55.26-.41.17-.57.21-.4.13-.82.22-.15,0a1.21,1.21,0,0,0-1,1.19h0a1.23,1.23,0,0,0,1,1.19c.28.06.55.13.82.21l.22.06.56.19.29.11.48.2.29.13c.24.11.47.23.7.35l.22.13.49.29.25.17.45.31.23.18A12.71,12.71,0,0,1,37.14,41c.14.22.27.44.39.67s.13.25.19.37.17.36.25.55.12.27.17.41.15.38.21.57.09.26.13.4.15.53.22.8c0,.06,0,.11,0,.17a1.22,1.22,0,0,0,1.19,1h0a1.22,1.22,0,0,0,1.19-1,12.65,12.65,0,0,1,9.66-9.66l.11,0a1.21,1.21,0,0,0,.85-1.15ZM38.13,30a.6.6,0,0,1,.08-.08l.39-.53.06-.08c.21-.3.41-.6.59-.9l.17-.28c.15-.26.29-.52.43-.79,0,0,.06-.1.08-.15a15.21,15.21,0,0,0,6.92,6.92A15.14,15.14,0,0,0,39.93,41c-.16-.33-.35-.66-.54-1l-.13-.21-.17-.29L39,39.39a15.36,15.36,0,0,0-3.17-3.51l-.09-.08-.54-.41-.06,0c-.3-.22-.61-.41-.92-.6L34,34.6c-.28-.17-.57-.32-.86-.47l-.1-.05c.34-.17.67-.35,1-.55l.2-.12.29-.17.12-.09A15.4,15.4,0,0,0,38.13,30Z"/><circle class="cls-2" cx="7.35" cy="37" r="2.23"/><circle class="cls-2" cx="37.23" cy="11.82" r="2.23"/></g></g></svg>