<svg xmlns="http://www.w3.org/2000/svg" viewBox="0 0 18 13.711">
  <defs>
    <style>
      .cls-1 {
        fill: #f37306;
      }
    </style>
  </defs>
  <title>emailAsset 10</title>
  <g id="Layer_2" data-name="Layer 2">
    <g id="Layer_1-2" data-name="Layer 1">
      <g>
        <path class="cls-1" d="M16.418,0H1.582A1.564,1.564,0,0,0,.9.159L8.965,8.219l1.807-1.736h0L17.1.159A1.564,1.564,0,0,0,16.418,0Z"/>
        <path class="cls-1" d="M17.842.9,11.89,6.856l5.951,5.951A1.564,1.564,0,0,0,18,12.129V1.582A1.564,1.564,0,0,0,17.842.9Z"/>
        <path class="cls-1" d="M.159.9A1.564,1.564,0,0,0,0,1.582V12.129a1.564,1.564,0,0,0,.158.678L6.11,6.855Z"/>
        <path class="cls-1" d="M11.145,7.6,9.338,9.338a.527.527,0,0,1-.746,0L6.855,7.6.9,13.552a1.564,1.564,0,0,0,.678.159H16.418a1.564,1.564,0,0,0,.678-.159Z"/>
      </g>
    </g>
  </g>
</svg>
