<svg xmlns="http://www.w3.org/2000/svg" viewBox="0 0 55.667 58.667">
  <defs>
    <style>
      .cls-1 {
        fill: #75b830;
      }
    </style>
  </defs>
  <title>Asset 42</title>
  <g id="Layer_2" data-name="Layer 2">
    <g id="Layer_1-2" data-name="Layer 1">
      <g>
        <rect class="cls-1" y="26.202" width="6.632" height="3.262" rx="1.28" ry="1.28"/>
        <rect class="cls-1" x="49.035" y="26.202" width="6.632" height="3.262" rx="1.28" ry="1.28"/>
        <rect class="cls-1" x="41.869" y="8.905" width="6.523" height="3.261" rx="1.28" ry="1.28" transform="translate(5.768 34.998) rotate(-45)"/>
        <rect class="cls-1" x="8.905" y="7.274" width="3.261" height="6.523" rx="1.28" ry="1.28" transform="translate(-4.364 10.536) rotate(-45)"/>
        <rect class="cls-1" x="26.202" width="3.262" height="6.632" rx="1.28" ry="1.28"/>
        <path class="cls-1" d="M42.511,49.143A3.261,3.261,0,0,1,45.773,52.4v3.262H9.894V52.4a3.262,3.262,0,0,1,3.262-3.262H42.511m0-3H13.155A6.269,6.269,0,0,0,6.894,52.4v6.262H48.773V52.4a6.269,6.269,0,0,0-6.262-6.262Z"/>
        <path class="cls-1" d="M27.833,13.156A14.694,14.694,0,0,1,42.511,27.833V45.882H13.155V27.833A14.694,14.694,0,0,1,27.833,13.156M25.518,33.41h4.63V19.519h-4.63V33.41m0,9.261h4.63V38.041h-4.63v4.631m2.315-32.516A17.7,17.7,0,0,0,10.155,27.833V48.882H45.511V27.833A17.7,17.7,0,0,0,27.833,10.156Z"/>
      </g>
    </g>
  </g>
</svg>
