<svg xmlns="http://www.w3.org/2000/svg" viewBox="0 0 55.697 55.697">
  <defs>
    <style>
      .cls-1 {
        fill: #75b830;
      }
    </style>
  </defs>
  <title>Asset 40</title>
  <g id="Layer_2" data-name="Layer 2">
    <g id="Layer_1-2" data-name="Layer 1">
      <path class="cls-1" d="M27.848,0A27.848,27.848,0,1,0,55.7,27.848,27.879,27.879,0,0,0,27.848,0Zm0,52.98A25.131,25.131,0,1,1,52.98,27.848,25.16,25.16,0,0,1,27.848,52.98Zm8.012-9.951v3.687a.28.28,0,0,1-.279.28H22.046a.279.279,0,0,1-.279-.28V43.029a.279.279,0,0,1,.279-.279h3.9V23.1H22.006a.277.277,0,0,1-.277-.278V19.051a.276.276,0,0,1,.277-.278h9.235a.278.278,0,0,1,.279.278v23.7h4.061A.279.279,0,0,1,35.859,43.029Zm-12.3-31.141A4.245,4.245,0,1,1,27.8,16.133,4.245,4.245,0,0,1,23.559,11.888Z"/>
    </g>
  </g>
</svg>
