<svg xmlns="http://www.w3.org/2000/svg" viewBox="0 0 18.041 18">
  <defs>
    <style>
      .cls-1 {
        fill: #f37306;
      }
    </style>
  </defs>
  <title>phoneAsset 9</title>
  <g id="Layer_2" data-name="Layer 2">
    <g id="Layer_1-2" data-name="Layer 1">
      <path class="cls-1" d="M17.636,14.237,14.85,11.451a1.453,1.453,0,0,0-2.048.039l-1.4,1.4-.277-.154A13.968,13.968,0,0,1,7.745,10.3,14.046,14.046,0,0,1,5.3,6.914c-.052-.094-.1-.185-.151-.271L6.089,5.7l.463-.464A1.451,1.451,0,0,0,6.59,3.191L3.8.4A1.451,1.451,0,0,0,1.756.443l-.785.79.021.021A4.541,4.541,0,0,0,.345,2.4,4.732,4.732,0,0,0,.057,3.553C-.311,6.6,1.083,9.39,4.865,13.172c5.228,5.228,9.442,4.833,9.623,4.814a4.708,4.708,0,0,0,1.161-.292,4.525,4.525,0,0,0,1.137-.644l.017.015.8-.779A1.454,1.454,0,0,0,17.636,14.237Z"/>
    </g>
  </g>
</svg>
