<svg xmlns="http://www.w3.org/2000/svg" viewBox="0 0 67.515 67.219">
  <defs>
    <style>
      .cls-1 {
        fill: #75b830;
      }
    </style>
  </defs>
  <title>Asset 41</title>
  <g id="Layer_2" data-name="Layer 2">
    <g id="Layer_1-2" data-name="Layer 1">
      <g>
        <path class="cls-1" d="M64.071,38.771a3.684,3.684,0,0,1-.748-2.347q.048-13.257.039-26.514c0-2.373-.022-2.369-2.465-2.418a27.3,27.3,0,0,1-4.739-.138c0-1.078.017-2.074,0-3.069C56.1,1.747,54.534.021,52.274,0a4.02,4.02,0,0,0-3.988,4.216c-.032,1.04-.005,2.082-.005,3.069a4.776,4.776,0,0,1-2.093.218q-9.566.018-19.132.008c-.257,0-.515,0-.772,0-2.959,0-6.786.009-7.1-.008a16.556,16.556,0,0,1-4.049-.212c0-1.121.031-2.171-.006-3.219a3.941,3.941,0,1,0-7.876.048A15.878,15.878,0,0,1,7.1,7.507c-1.786,0-3.537.033-5.286-.011C.578,7.465,0,7.871,0,9.23Q.048,32.5,0,55.776c0,1.34.523,1.757,1.789,1.738,3.112-.048,15.266-.012,18.379-.01.239,0,.478,0,.717,0,3.57.014,7.139.038,10.707-.037a3.163,3.163,0,0,1,3.11,1.687A17.879,17.879,0,1,0,64.071,38.771ZM50.309,7.711h.007c0-1.2-.007-2.4,0-3.6a1.938,1.938,0,1,1,3.87-.088q.085,3.828,0,7.659a1.826,1.826,0,0,1-1.89,1.94,1.853,1.853,0,0,1-1.977-2C50.28,10.316,50.309,9.013,50.309,7.711ZM9.281,4.019A1.809,1.809,0,0,1,11.1,2.027a1.812,1.812,0,0,1,2.032,1.934c.065,2.554.055,5.11.007,7.665a1.832,1.832,0,0,1-1.98,2,1.835,1.835,0,0,1-1.872-2.088q0-1.879,0-3.758C9.277,6.524,9.263,5.271,9.281,4.019ZM2.16,9.609H7.254c0,.638-.007,1.18,0,1.723.039,2.535,1.593,4.246,3.878,4.275,2.368.03,3.927-1.663,4.006-4.3.017-.575-.209-1.2.3-1.795h10.79c.264,0,.529,0,.793.005q9.867.005,19.735.017c.482,0,1.006-.172,1.438.2.38,4.242,1.316,5.707,3.74,5.879a3.962,3.962,0,0,0,2.687-.775c1.82-1.316,1.5-3.345,1.594-5.2h5.059v8.637H59.708q-4.539,0-9.077-.007a4.326,4.326,0,0,0-.921,0c-.125,0-.249.007-.369.02l-.1,0c-13-.02-32.036-.011-45.041-.024a3.845,3.845,0,0,1-2.041-.193ZM32.5,55.545c-3.5,0-6.977,0-10.445,0-.3-.03-.627,0-.919,0-2.812-.015-14.663.006-17.475,0a2.489,2.489,0,0,1-1.547-.221V20.294H4.079c13.055,0,32.137,0,45.192-.01a9.6,9.6,0,0,0,1.326.01H61.208V35.6a18.459,18.459,0,0,0-6.975-3.608c-.727-.178-.744-.677-.737-1.259.017-1.456,0-2.912.016-4.369.007-.923-.424-1.413-1.358-1.416-1.908-.005-3.816-.013-5.725,0a1.147,1.147,0,0,0-1.291,1.305c.016.954,0,1.908,0,2.862,0,2.614,0,2.616-2.328,3.587-.507.212-1.023.4-1.535.605l.039-.032H41.3a.087.087,0,0,0-.024.028c-.268.2-.526.412-.809.586a17.9,17.9,0,0,0-8.487,18.8A8.525,8.525,0,0,1,32.5,55.545ZM51.438,27.056v4.221a22.358,22.358,0,0,1-4.245-.006V27.055A19.916,19.916,0,0,1,51.438,27.056ZM41.273,33.31h0Zm8.119,31.9a15.936,15.936,0,1,1,16.1-15.836A15.93,15.93,0,0,1,49.391,65.211Z"/>
        <path class="cls-1" d="M14.149,38.7c-.9,0-1.807.027-2.709-.006-1.1-.041-1.526.482-1.506,1.552.033,1.755.038,3.513-.012,5.267-.034,1.184.514,1.633,1.636,1.6.9-.029,1.806,0,2.709,0,4.569-.02,4.079.476,4.077-4.127C18.342,38.013,18.839,38.749,14.149,38.7Zm2.1,6.3H12.054V40.811a30.072,30.072,0,0,1,4.194-.1Z"/>
        <path class="cls-1" d="M9.945,29.113c0,.953.014,1.907,0,2.859s.419,1.38,1.364,1.372q2.859-.025,5.719-.009a1.155,1.155,0,0,0,1.313-1.285c.017-1.906.007-3.813.011-5.719a1.226,1.226,0,0,0-1.389-1.388c-1.856,0-3.712,0-5.569,0-.985,0-1.488.437-1.453,1.464C9.969,27.306,9.945,28.21,9.945,29.113Zm2.072-2.055h4.219V31.19c-1.341.406-2.71.046-4.208.192A21.881,21.881,0,0,1,12.017,27.058Z"/>
        <path class="cls-1" d="M28.62,38.691c-.9.028-1.806,0-2.709.013-4.878.056-4.178-.646-4.244,4.219,0,.9.025,1.807-.007,2.709-.035,1.018.443,1.479,1.439,1.476,1.856-.006,3.712,0,5.568,0a1.235,1.235,0,0,0,1.4-1.381c.007-1.856,0-3.712.005-5.568C30.078,39.177,29.65,38.658,28.62,38.691ZM27.957,45H23.639c0-1.217.011-2.352,0-3.486-.008-.572.265-.81.812-.808,1.138,0,2.277,0,3.511,0Z"/>
        <path class="cls-1" d="M25.888,24.943c-4.917.006-4.193-.508-4.2,4.259-.008,4.817-.61,4.071,4.144,4.134,4.75-.064,4.239.691,4.24-4.234C30.074,24.467,30.635,24.937,25.888,24.943Zm2.1,6.3a21.253,21.253,0,0,1-4.188.067,24.879,24.879,0,0,1-.173-4.213,19.815,19.815,0,0,1,4.361-.059Z"/>
        <path class="cls-1" d="M41.739,25.932c-.018-.816-.725-.99-1.433-.991-1.8,0-3.607.01-5.411,0-1.078-.009-1.524.491-1.5,1.57.043,1.8.034,3.607,0,5.41-.016,1.025.442,1.453,1.451,1.433,2.146-.043,4.293-.05,6.439-.072.15-.247.4-.493.4-.743C41.744,30.334,41.789,28.132,41.739,25.932Zm-2,5.321a18.16,18.16,0,0,1-4.328,0V27.117a18.7,18.7,0,0,1,4.239-.111A20.641,20.641,0,0,1,39.735,31.253Z"/>
        <path class="cls-1" d="M53.43,45.254c-.706-4.2-.706-4.2-3.9-4.182-3.115.017-3.115.017-3.782,4.261-3.59.272-4.132.508-4.139,2.154-.006,1.478-.488,3.064.371,4.422.912,1.442,2.631.48,3.853,1.01.319,3.739.51,4.09,2.249,4.194,4.512.269,4.512.269,5.367-4.233,4.049-.551,4.129-.6,4.161-2.678C57.675,45.955,57.675,45.955,53.43,45.254Zm2.047,5.5c-.916,0-1.807.025-2.7-.006-1.073-.038-1.581.427-1.544,1.518.03.888.006,1.778.006,2.751a12.3,12.3,0,0,1-3.127.005,6.837,6.837,0,0,1-.166-2.66c.024-1.157-.459-1.662-1.613-1.606-.847.041-1.7.008-2.574.008a7.2,7.2,0,0,1-.1-3.153,4.96,4.96,0,0,1,1.962-.156c2.267-.028,2.3-.052,2.314-2.25,0-.646,0-1.292,0-1.965a8.086,8.086,0,0,1,3.317-.08c0,.748,0,1.436,0,2.125.007,2.055.1,2.152,2.093,2.163.7,0,1.395,0,2.22,0A10.484,10.484,0,0,1,55.477,50.751Z"/>
      </g>
    </g>
  </g>
</svg>
