<svg xmlns="http://www.w3.org/2000/svg" viewBox="0 0 103.47 86.78"><defs><style>.cls-1{fill:#7e919a;}</style></defs><title>img-subscribeAsset 11</title><g id="Layer_2" data-name="Layer 2"><g id="Layer_1-2" data-name="Layer 1"><path class="cls-1" d="M79.11,81.89V31.14c.86-.4,1.47,0,2.06.2,5.31,1.43,10.6,3,15.92,4.36a2.2,2.2,0,0,1,2,2.59c-.06,13.72,0,27.44,0,41.15V81.7c1.43.56,2.93,0,4.42.4v4.68H0V82.13c1.41-.46,3,.05,4.59-.34V23.33l19.88-5.51v64h2.85V0l49,10.65V81.87A4.14,4.14,0,0,0,79.11,81.89Zm-36.78-.08h8.42V67.68H42.33ZM61.4,67.73H52.92v14.1H61.4Zm-13.28-44h7.31V16.27H48.12ZM18.36,36.65V29.17h-7.3v7.48ZM55.5,29.18H48.12v7.46H55.5ZM11,41.92v7.53h7.31V41.92Zm44.41,7.53V42H48.14v7.47Zm29.91-.07h7.32V41.92H85.36Zm-67,12.93V54.86H11v7.45Zm37.09,0V54.8H48.17v7.54ZM92.7,54.83H85.36v7.44H92.7ZM18.35,67.71H11v7.47h7.31Zm67,7.44h7.32V67.67H85.34ZM34,23.76h7.28V16.29H34Zm35.8-7.49h-7.3v7.51h7.3ZM34,36.61h7.32V29.16H34ZM69.8,29.18H62.44V36.6H69.8ZM34,49.4h7.29V42H34Zm35.71,0V41.94H62.47v7.49ZM41.28,54.85H33.87v6.36c0,.67.11,1.2,1,1.19,2.12,0,4.23,0,6.44,0ZM69.71,62.3V54.79H62.46V62.3Z"/></g></g></svg>