<svg xmlns="http://www.w3.org/2000/svg" viewBox="0 0 253.41 118.16"><defs><style>.cls-1{fill:#fff;}</style></defs><title>img-subscribeAsset 9</title><g id="Layer_2" data-name="Layer 2"><g id="Layer_1-2" data-name="Layer 1"><path class="cls-1" d="M86.82,104.08a19.72,19.72,0,0,0,19,14.08,20.14,20.14,0,0,0,19-14.14l.54-1.76h74.14l.51,1.82a19.73,19.73,0,0,0,19,14.08,20.14,20.14,0,0,0,19-14.14l.54-1.76h14.8V50.54H243L227.28,22.07H191.39V0H67.49V102.26H86.3Zm30.33-5.61a11.73,11.73,0,0,1-11.55,11.44,11.55,11.55,0,1,1,11.55-11.55Zm101.46,11.44a11.55,11.55,0,0,1,0-23.1,11.44,11.44,0,0,1,11.55,11.55A11.56,11.56,0,0,1,218.61,109.91Zm26.11-51.13V94H238l-.58-1.67a20.2,20.2,0,0,0-18.61-13.56,19.74,19.74,0,0,0-18.59,13.5L199.68,94h-7.85V58.78ZM191.39,30.31h31.12l11.14,20.23H191.39ZM75.74,8.24H183.15v86H124.8l-.59-1.67A20.18,20.18,0,0,0,105.6,79,19.74,19.74,0,0,0,87,92.51l-.57,1.73H75.74Z"/><rect class="cls-1" x="16" y="32.5" width="43" height="7"/><rect class="cls-1" x="8" y="48.5" width="51" height="7"/><rect class="cls-1" y="64.5" width="59" height="7"/></g></g></svg>