<svg xmlns="http://www.w3.org/2000/svg" viewBox="0 0 84.97 85"><defs><style>.cls-1{fill:#7e919a;}</style></defs><title>img-subscribeAsset 10</title><g id="Layer_2" data-name="Layer 2"><g id="Layer_1-2" data-name="Layer 1"><path class="cls-1" d="M42.44,85A42.5,42.5,0,1,1,85,42.53,42.53,42.53,0,0,1,42.44,85ZM40.69,55.74l2.92.24c0,.44.06.89.06,1.33V79.94a2.63,2.63,0,0,0,.13,1.3c21.42,0,38.8-19.55,37.4-39.23H62.91l-.23-.91c.48,0,1-.06,1.44-.06H80c.42,0,.88.13,1.27-.15-.64-19.35-17.69-37.73-41-36.43C18.05,5.71,4,24.36,3.9,41.09H11c.12.39.66.48.68.94H3.83c-1,20.58,16.51,38.86,36.91,39.19V80q0-5.55,0-11.1C40.73,64.54,40.7,60.14,40.69,55.74Z"/><path class="cls-1" d="M62.71,41.12c-.4,0-.81-.08-1.21-.08H12.27c-.44,0-.88.05-1.32.08L8.46,39.28c3.11-1,6.07-1.69,9-2.37a83.72,83.72,0,0,1,18.65-2.5,15.42,15.42,0,0,0,6.26-1.28c2.46-1.09,2.85-2.32,1.77-4.73a12,12,0,0,1-.1-10c1.23-2.85,3.93-4.21,7.29-3.88,3.19.3,5.61,1.94,6,4.67.34,2.25,1.7,3.11,3.48,3.8A28.45,28.45,0,0,0,64.7,24.1c.39.09.83.15.93.66s-.28.8-.64,1.06a2.38,2.38,0,0,1-1.58.39,38.84,38.84,0,0,0-7.31.23,9.64,9.64,0,0,0-1.19.24c-2.07.53-2.51,1.55-1.46,3.43a5.43,5.43,0,0,0,2.73,2.34C60.05,34.08,61.73,37.33,62.71,41.12Z"/><path class="cls-1" d="M43.57,56c.22-2.62,0-5.24.09-7.85,0-1.67.06-3.33,0-5,0-.88.25-1.13,1.12-1.12,5.65,0,11.3,0,16.95,0,.41,0,.81-.06,1.21-.08a18.21,18.21,0,0,1-.1,4.3,10.48,10.48,0,0,1-6,7.48A25.05,25.05,0,0,1,46.35,56C45.42,56,44.5,56,43.57,56Z"/><path class="cls-1" d="M11.61,42H40.72v13.8a52.69,52.69,0,0,1-19.39-5.42,111.86,111.86,0,0,0-15-6.28Z"/></g></g></svg>