<svg xmlns="http://www.w3.org/2000/svg" viewBox="0 0 94.72 76.5"><defs><style>.cls-1{fill:#7e919a;}</style></defs><title>klientAsset 19</title><g id="Layer_2" data-name="Layer 2"><g id="Layer_1-2" data-name="Layer 1"><path class="cls-1" d="M47.44,76.5H10.76c-2.32,0-2.55-.22-2.55-2.51,0-13.76,0-27.53,0-41.29a2.82,2.82,0,0,1,1.6-2.81Q27.85,19.61,45.86,9.21a2.66,2.66,0,0,1,3.06,0q18,10.4,36.08,20.68a2.66,2.66,0,0,1,1.56,2.66c0,13.82,0,27.64,0,41.46,0,2.24-.24,2.46-2.61,2.46ZM73.32,42.26H56.71V69H73.32ZM18.16,56.61H40.54V42.24H18.16Zm29.13-29a5.16,5.16,0,0,0,5.17-5,5.27,5.27,0,0,0-5-5.19,5.22,5.22,0,0,0-5.15,5A5.12,5.12,0,0,0,47.29,27.61Z"/><path class="cls-1" d="M94.71,31.13a1.48,1.48,0,0,1-2.3,1.25c-1.07-.49-2.07-1.13-3.09-1.72Q69.1,19.11,48.91,7.54a2.61,2.61,0,0,0-3,0Q24.71,19.69,3.48,31.77c-.36.2-.71.42-1.08.59-.84.39-1.65.39-2.15-.5a1.53,1.53,0,0,1,.54-2.17c.38-.27.8-.49,1.21-.73Q23.75,16.54,45.49,4.1a3.23,3.23,0,0,1,3.71,0Q71.07,16.63,93,29.1C93.81,29.56,94.74,30,94.71,31.13Z"/><path class="cls-1" d="M74.8,8c0,2.06,0,4.13,0,6.19,0,1.51-.73,1.92-2.05,1.19-2.22-1.22-4.38-2.54-6.59-3.78a2.09,2.09,0,0,1-1.06-2.06c0-2.54,0-5.08,0-7.61C65.07.59,65.58,0,67,0c2,.07,4,.06,6,0,1.29,0,1.83.52,1.82,1.78C74.78,3.85,74.8,5.91,74.8,8Z"/></g></g></svg>