<svg xmlns="http://www.w3.org/2000/svg" viewBox="0 0 101.37 119.7"><defs><style>.cls-1{fill:#fff;}</style></defs><title>img-subscribeAsset 8</title><g id="Layer_2" data-name="Layer 2"><g id="Layer_1-2" data-name="Layer 1"><path class="cls-1" d="M101.36,119.7H.24c-.38-.5-.2-1.09-.2-1.62q0-44.52,0-89a6.64,6.64,0,0,1,.54-2.67Q5.84,13.81,11,1.2A1.62,1.62,0,0,1,12.81,0Q50.73,0,88.64,0a1.53,1.53,0,0,1,1.68,1.11Q95.62,13.94,101,26.72a4.9,4.9,0,0,1,.39,1.93q0,45,0,90.1ZM66.75,32.32V61.84c-1.78-1.18-3.31-2.21-4.84-3.21s-2.79-2.48-4.25-2.57-2.93,1.64-4.38,2.58c-2.6,1.69-2.58,1.71-5.2,0-1.41-.93-2.8-2.48-4.26-2.55s-2.92,1.66-4.37,2.59-3.09,2-4.9,3.24V32.38H7.06v80.38H94.32V32.32Zm-27.46,0V53a3.11,3.11,0,0,0,1.54-.8c3-2,3-2,6,0,.85.57,1.74,1.08,2.53,1.72A1.81,1.81,0,0,0,52,54a24.27,24.27,0,0,1,2.65-1.81c2.94-2,2.93-2,5.84,0,.48.32.89.85,1.62.8V32.34ZM38.35,7.08A5.62,5.62,0,0,0,37.56,7c-6.8,0-13.6,0-20.39,0-.93,0-1.21.47-1.51,1.18-2.2,5.33-4.44,10.65-6.63,16-.15.35-.62.76-.17,1.18H35.32C36.33,19.18,37.33,13.19,38.35,7.08Zm24.71.15c1,6,2,12,3,18H92.78c-.18-.51-.3-.9-.45-1.27-2.18-5.23-4.39-10.44-6.52-15.69a1.82,1.82,0,0,0-2-1.36c-6.39,0-12.78,0-19.17,0A2.2,2.2,0,0,0,63.06,7.23Zm-14.81,18V6.93c-1.47,0-2.79.05-4.11,0-.85,0-1.17.3-1.28,1.1-.28,1.86-.62,3.72-.92,5.58-.64,3.85-1.27,7.7-1.93,11.66Zm4.82,0h8.31c-1-6.18-2-12.22-3-18.19H53.07Z"/><path class="cls-1" d="M11.6,108.13V80.74H48.29v27.39Zm4.63-4.63H43.65V85.35H16.23Z"/><path class="cls-1" d="M32.22,87.65V92H18.54V87.65Z"/></g></g></svg>