<svg xmlns="http://www.w3.org/2000/svg" viewBox="0 0 96.01 57"><defs><style>.cls-1{fill:#fff;}.cls-2{fill:#b1b1b1;}</style></defs><title>logo2Asset 20</title><g id="Layer_2" data-name="Layer 2"><g id="Layer_1-2" data-name="Layer 1"><path class="cls-1" d="M83.37,43a1.31,1.31,0,0,0-.92.36,1.28,1.28,0,0,0-.38.95v3.42a5,5,0,0,0-.74-.45,4.73,4.73,0,0,0-4.44.22,4.91,4.91,0,0,0-1.68,1.82,5.45,5.45,0,0,0-.61,2.57,5.15,5.15,0,0,0,.67,2.59A4.92,4.92,0,0,0,79.65,57,4.94,4.94,0,0,0,84,54.5a5.05,5.05,0,0,0,.67-2.59V44.33a1.28,1.28,0,0,0-.36-.94,1.31,1.31,0,0,0-.94-.37M79.65,54.58a2.37,2.37,0,0,1-1.27-.34,2.42,2.42,0,0,1-.9-1,2.77,2.77,0,0,1-.34-1.38,2.82,2.82,0,0,1,.33-1.38,2.56,2.56,0,0,1,.91-.94,2.37,2.37,0,0,1,1.27-.34,2.34,2.34,0,0,1,1.27.34,2.44,2.44,0,0,1,.89.94,2.93,2.93,0,0,1,.32,1.38,3,3,0,0,1-.32,1.38,2.4,2.4,0,0,1-.89,1A2.34,2.34,0,0,1,79.65,54.58Zm16-7.32a1.31,1.31,0,0,0-2.23.94v4.69a1.38,1.38,0,0,1-.26.82,1.9,1.9,0,0,1-.72.62,2.36,2.36,0,0,1-1.06.23,2.63,2.63,0,0,1-1.15-.24,1.68,1.68,0,0,1-.75-.72,2.52,2.52,0,0,1-.29-1.31V48.2a1.28,1.28,0,0,0-.38-.93,1.35,1.35,0,0,0-1.85,0,1.28,1.28,0,0,0-.38.93v4.09a5.31,5.31,0,0,0,.58,2.55,4.11,4.11,0,0,0,1.61,1.62A4.76,4.76,0,0,0,91,57a4.49,4.49,0,0,0,2.21-.54l.33-.2a1.14,1.14,0,0,0,.21.28A1.3,1.3,0,0,0,96,55.62V48.2A1.31,1.31,0,0,0,95.64,47.26ZM74.07,50.72a5.2,5.2,0,0,0-.46-1.46A4.19,4.19,0,0,0,72,47.49a4.59,4.59,0,0,0-2.47-.64A5,5,0,0,0,67,47.5a4.61,4.61,0,0,0-1.76,1.8,5.35,5.35,0,0,0-.63,2.62,5.16,5.16,0,0,0,.67,2.62,4.78,4.78,0,0,0,1.85,1.8A5.46,5.46,0,0,0,69.8,57a5.55,5.55,0,0,0,1.75-.3,5.31,5.31,0,0,0,1.54-.8,1,1,0,0,0,.44-.91,1.26,1.26,0,0,0-.46-.87,1.2,1.2,0,0,0-.81-.28,1.46,1.46,0,0,0-.8.28,2.9,2.9,0,0,1-.75.38,2.75,2.75,0,0,1-.91.17,2.84,2.84,0,0,1-1.45-.36,2.58,2.58,0,0,1-1-1,2.53,2.53,0,0,1-.18-.37h5.74a1.24,1.24,0,0,0,.86-.33,1.19,1.19,0,0,0,.36-.86,6.15,6.15,0,0,0-.06-.87Zm-6.75-.24a2.23,2.23,0,0,1,.85-.95,2.62,2.62,0,0,1,1.38-.34,2.14,2.14,0,0,1,1.17.3,2,2,0,0,1,.73.86,2.39,2.39,0,0,1,.15.37H67.22A2.44,2.44,0,0,1,67.32,50.48Zm-3-3.23a1.17,1.17,0,0,0-1.09-.6,1.31,1.31,0,0,0-.71.18,1.33,1.33,0,0,0-.49.62l-2.28,5.41-3.77-9a1.26,1.26,0,0,0-1.22-.8,1.14,1.14,0,0,0-1.1.62,1.53,1.53,0,0,0,0,1.32L58.53,56.1a1.28,1.28,0,0,0,1.2.82,1.25,1.25,0,0,0,.74-.23,1.35,1.35,0,0,0,.45-.59l3.37-7.65A1.3,1.3,0,0,0,64.28,47.25Zm-18.18.06a3.73,3.73,0,0,0-1.9-.48,4.4,4.4,0,0,0-2.14.52,4.23,4.23,0,0,0-.75.54,3,3,0,0,0-.75-.58,3.73,3.73,0,0,0-1.9-.48,3.79,3.79,0,0,0-2,.53l-.13.09a.64.64,0,0,0-.13-.15,1.28,1.28,0,0,0-.93-.37,1.35,1.35,0,0,0-.93.36,1.27,1.27,0,0,0-.38.94v7.4a1.27,1.27,0,0,0,.38.93,1.35,1.35,0,0,0,1.87,0,1.31,1.31,0,0,0,.36-.92V50.94a1.66,1.66,0,0,1,.44-1.21,1.43,1.43,0,0,1,1.1-.46,1.38,1.38,0,0,1,1,.38,1.68,1.68,0,0,1,.38,1.23v4.75a1.3,1.3,0,0,0,.37.93,1.32,1.32,0,0,0,.93.37,1.26,1.26,0,0,0,1.3-1.3V50.94a1.7,1.7,0,0,1,.44-1.22,1.42,1.42,0,0,1,1.09-.45,1.34,1.34,0,0,1,1,.38,1.63,1.63,0,0,1,.38,1.23v4.75a1.27,1.27,0,0,0,.38.93,1.35,1.35,0,0,0,1.87,0,1.31,1.31,0,0,0,.36-.92V50.88a4.78,4.78,0,0,0-.46-2.16A3.22,3.22,0,0,0,46.1,47.31Zm-15.47-.4a1.28,1.28,0,0,0-.92.37,1.24,1.24,0,0,0-.38.94v7.4a1.28,1.28,0,0,0,1.3,1.3,1.26,1.26,0,0,0,.94-.38,1.3,1.3,0,0,0,.36-.92v-7.4a1.28,1.28,0,0,0-.36-.94A1.31,1.31,0,0,0,30.63,46.91Zm-2.9.3a3.2,3.2,0,0,0-1.74-.4,4.12,4.12,0,0,0-2,.53l-.4.25a1,1,0,0,0-.23-.33,1.25,1.25,0,0,0-.94-.35,1.28,1.28,0,0,0-.94.35,1.3,1.3,0,0,0-.35.94v7.43a1.23,1.23,0,0,0,.36.95,1.29,1.29,0,0,0,.93.34,1.26,1.26,0,0,0,.95-.36,1.29,1.29,0,0,0,.33-.93V50.78a1.31,1.31,0,0,1,.36-1,2.24,2.24,0,0,1,1.11-.55,4.18,4.18,0,0,1,1.72,0,1.63,1.63,0,0,0,.58,0,1.11,1.11,0,0,0,.54-.27,1,1,0,0,0,.33-.58A1.12,1.12,0,0,0,27.73,47.21ZM18.8,49.34A4.94,4.94,0,0,0,17,47.52a4.88,4.88,0,0,0-2.55-.67,5,5,0,0,0-2.57.67,4.86,4.86,0,0,0-1.81,1.82,5.09,5.09,0,0,0-.67,2.58A5.42,5.42,0,0,0,10,54.49a4.91,4.91,0,0,0,1.68,1.82A4.48,4.48,0,0,0,14.1,57a4.43,4.43,0,0,0,2.42-.67l.4-.28a1.24,1.24,0,0,0,.31.53,1.36,1.36,0,0,0,1.86,0,1.3,1.3,0,0,0,.37-.93v-4h0A5.17,5.17,0,0,0,18.8,49.34Zm-2.2,4a2.44,2.44,0,0,1-.89.94,2.34,2.34,0,0,1-1.27.34,2.41,2.41,0,0,1-2.17-1.29,2.68,2.68,0,0,1-.34-1.37,2.74,2.74,0,0,1,.34-1.38,2.49,2.49,0,0,1,.9-.95,2.37,2.37,0,0,1,1.27-.34,2.34,2.34,0,0,1,1.27.34,2.4,2.4,0,0,1,.89.95,3.05,3.05,0,0,1,0,2.76ZM7.08,43.63A4.91,4.91,0,0,0,4.64,43H1.32a1.32,1.32,0,0,0-.93.37,1.28,1.28,0,0,0-.39,1V55.6a1.3,1.3,0,0,0,1.32,1.32A1.3,1.3,0,0,0,2.64,55.6V52.41h2a4.94,4.94,0,0,0,2.43-.59,4.23,4.23,0,0,0,1.68-1.65,4.74,4.74,0,0,0,.6-2.39,5,5,0,0,0-.59-2.45A4.43,4.43,0,0,0,7.08,43.63ZM4.64,49.91h-2V45.53h2a2.14,2.14,0,0,1,1.12.28,2.11,2.11,0,0,1,.75.79,2.45,2.45,0,0,1,.27,1.18,2.2,2.2,0,0,1-.27,1.11,2,2,0,0,1-.74.74A2.18,2.18,0,0,1,4.64,49.91Z"/><path class="cls-2" d="M67.92,15l-2.38-2.79a1.31,1.31,0,0,0-1-.44l-8.65.09,3.86-6.56a1.26,1.26,0,0,0,.09-1.07L58.61.82A1.26,1.26,0,0,0,57.43,0h0l-.19,0L53.6.6a1.26,1.26,0,0,0-.88.6l-6,10.28a1.26,1.26,0,1,0,2.16,1.28L54.59,3l2-.33.71,1.92L52.94,12a1.25,1.25,0,0,0-.08,1.11.17.17,0,0,0,0,.07,1.25,1.25,0,0,0,1.27,1.24l9.89-.1,1.32,1.55-1.27,1.6-6.25.11a1.26,1.26,0,0,0,0,2.51h0L64.69,20a1.27,1.27,0,0,0,1-.48L68,16.64a1.27,1.27,0,0,0,0-1.6M64.69,42.77a1.5,1.5,0,0,0-1.09.45,1.53,1.53,0,0,0-.46,1.1,1.55,1.55,0,0,0,3.1,0,1.53,1.53,0,0,0-.46-1.1A1.5,1.5,0,0,0,64.69,42.77Zm-34.06.47a1.47,1.47,0,0,0-1.09.46,1.5,1.5,0,0,0-.46,1.09,1.55,1.55,0,0,0,1.55,1.55,1.53,1.53,0,0,0,1.1-.45,1.55,1.55,0,0,0,0-2.19A1.47,1.47,0,0,0,30.63,43.24Z"/><path class="cls-1" d="M48.89,21.83a1.26,1.26,0,0,0-1.72.44L41.42,32l-2,.33-.71-1.92L43.07,23a1.25,1.25,0,0,0,.09-1.11v-.07A1.26,1.26,0,0,0,41.9,20.6h0L32,20.7l-1.33-1.55L32,17.55l6.25-.1a1.26,1.26,0,0,0,0-2.52h0L31.32,15a1.27,1.27,0,0,0-1,.48l-2.29,2.87a1.25,1.25,0,0,0,0,1.6l2.39,2.79a1.23,1.23,0,0,0,.95.44h0l8.64-.09-3.85,6.56a1.22,1.22,0,0,0-.1,1.07l1.26,3.45a1.26,1.26,0,0,0,1.18.82.65.65,0,0,0,.2,0l3.63-.58a1.26,1.26,0,0,0,.88-.6l6-10.28a1.25,1.25,0,0,0-.44-1.72M57.49,35a1.43,1.43,0,0,1-.29,0l-3.57-.83a1.24,1.24,0,0,1-.84-.67l-3-6.12A1.26,1.26,0,1,1,52,26.26l2.78,5.59,2,.47.83-1.87-4.49-9a1.26,1.26,0,0,1,2.25-1.12l4.76,9.56a1.25,1.25,0,0,1,0,1.07l-1.49,3.36A1.27,1.27,0,0,1,57.49,35Zm-15.7-19.6a1.27,1.27,0,0,1-1.13-.7L35.9,5.17a1.29,1.29,0,0,1,0-1.07L37.38.74A1.27,1.27,0,0,1,38.81,0l3.58.83a1.28,1.28,0,0,1,.84.67l3.05,6.12a1.27,1.27,0,0,1-.57,1.69A1.24,1.24,0,0,1,44,8.77L41.24,3.18l-2-.46-.83,1.86,4.49,9a1.26,1.26,0,0,1-.56,1.69A1.24,1.24,0,0,1,41.79,15.43Z"/></g></g></svg>