<svg xmlns="http://www.w3.org/2000/svg" viewBox="0 0 146.3 86.86"><defs><style>.cls-1{fill:#1c4181;}.cls-2{fill:#00a8e4;}</style></defs><title>logo1Asset 19</title><g id="Layer_2" data-name="Layer 2"><g id="Layer_1-2" data-name="Layer 1"><path class="cls-1" d="M10.79,66.49a7.35,7.35,0,0,0-3.71-.93H2a2,2,0,0,0-2,2V84.72a2,2,0,0,0,2,2,2,2,0,0,0,1.45-.59A2,2,0,0,0,4,84.72V79.86H7.08a7.61,7.61,0,0,0,3.7-.89,6.53,6.53,0,0,0,2.56-2.52,7.23,7.23,0,0,0,.91-3.64,7.56,7.56,0,0,0-.91-3.74,6.66,6.66,0,0,0-2.55-2.58M7.08,76.05H4V69.38H7.08a3.19,3.19,0,0,1,1.69.43A3.09,3.09,0,0,1,9.92,71a3.8,3.8,0,0,1,.42,1.8,3.31,3.31,0,0,1-.42,1.69,3,3,0,0,1-1.13,1.13A3.36,3.36,0,0,1,7.08,76.05Z"/><path class="cls-1" d="M28.64,75.18A7.5,7.5,0,0,0,22,71.39a7.6,7.6,0,0,0-3.91,1,7.49,7.49,0,0,0-2.76,2.77,7.79,7.79,0,0,0-1,3.94A8.24,8.24,0,0,0,15.24,83a7.37,7.37,0,0,0,2.57,2.77,7.11,7.11,0,0,0,7.37,0,6.42,6.42,0,0,0,.6-.42,1.86,1.86,0,0,0,.48.81,2.08,2.08,0,0,0,2.83,0,2,2,0,0,0,.57-1.42v-6.1h0a7.74,7.74,0,0,0-1-3.48m-3.35,6a3.63,3.63,0,0,1-3.29,2,3.66,3.66,0,0,1-1.94-.52,3.87,3.87,0,0,1-1.37-1.44,4.23,4.23,0,0,1-.51-2.09A4.28,4.28,0,0,1,18.69,77a3.87,3.87,0,0,1,1.37-1.44A3.66,3.66,0,0,1,22,75.05a3.63,3.63,0,0,1,3.29,2,4.39,4.39,0,0,1,.5,2.11A4.22,4.22,0,0,1,25.29,81.21Z"/><path class="cls-1" d="M42.26,71.94a4.86,4.86,0,0,0-2.65-.6,6.2,6.2,0,0,0-3.74,1.18,1.65,1.65,0,0,0-.35-.51,2.21,2.21,0,0,0-2.86,0,1.91,1.91,0,0,0-.54,1.43V84.77a1.91,1.91,0,0,0,.55,1.45,1.94,1.94,0,0,0,1.41.51,1.91,1.91,0,0,0,1.45-.54A2,2,0,0,0,36,84.77v-7.4a2,2,0,0,1,.55-1.44,3.29,3.29,0,0,1,1.69-.84,6.41,6.41,0,0,1,2.61,0,2.09,2.09,0,0,0,.89,0,1.67,1.67,0,0,0,.83-.41,1.53,1.53,0,0,0,.5-.89,1.7,1.7,0,0,0-.85-1.93"/><path class="cls-1" d="M46.68,71.49a2,2,0,0,0-1.41.55,1.92,1.92,0,0,0-.58,1.43V84.75a2,2,0,1,0,4,0V73.47a1.9,1.9,0,0,0-2-2"/><path class="cls-2" d="M46.68,65.89a2.25,2.25,0,0,0-1.67.7,2.37,2.37,0,1,0,3.33,0,2.25,2.25,0,0,0-1.66-.7"/><path class="cls-2" d="M98.57,65.17a2.25,2.25,0,0,0-1.66.7,2.28,2.28,0,0,0-.7,1.66,2.25,2.25,0,0,0,.7,1.67,2.35,2.35,0,1,0,3.33-3.33,2.25,2.25,0,0,0-1.67-.7"/><path class="cls-1" d="M70.25,72.09a5.71,5.71,0,0,0-2.9-.73,6.62,6.62,0,0,0-3.26.8A5.51,5.51,0,0,0,63,73a4.68,4.68,0,0,0-1.14-.89,6.08,6.08,0,0,0-5.92.08l-.2.13a2.11,2.11,0,0,0-.19-.23,2,2,0,0,0-1.43-.56,1.93,1.93,0,0,0-2,2V84.77a2,2,0,0,0,.57,1.42,2.05,2.05,0,0,0,2.85,0,2,2,0,0,0,.55-1.41V77.63a2.59,2.59,0,0,1,.67-1.86,2.17,2.17,0,0,1,1.67-.69,2.09,2.09,0,0,1,1.57.57,2.55,2.55,0,0,1,.58,1.88v7.24a2,2,0,0,0,.57,1.42,2.05,2.05,0,0,0,2.85,0,2,2,0,0,0,.55-1.41V77.63a2.63,2.63,0,0,1,.66-1.86,2.15,2.15,0,0,1,1.66-.69,2.11,2.11,0,0,1,1.57.57A2.59,2.59,0,0,1,69,77.53v7.24a2,2,0,0,0,3.42,1.41A2,2,0,0,0,73,84.77V77.53a7.26,7.26,0,0,0-.7-3.29,4.93,4.93,0,0,0-2-2.15"/><path class="cls-1" d="M98,72a1.79,1.79,0,0,0-1.67-.91,1.78,1.78,0,0,0-1.82,1.21L91,80.55,85.24,66.77a1.9,1.9,0,0,0-1.85-1.21,1.76,1.76,0,0,0-1.69.94,2.35,2.35,0,0,0,.06,2l7.43,17A1.94,1.94,0,0,0,91,86.73a1.9,1.9,0,0,0,1.14-.35,2.26,2.26,0,0,0,.69-.9L98,73.82A2,2,0,0,0,98,72"/><path class="cls-1" d="M112.86,77.29a8,8,0,0,0-.69-2.23,6.42,6.42,0,0,0-2.43-2.7,7.1,7.1,0,0,0-3.75-1,7.61,7.61,0,0,0-3.9,1,7.09,7.09,0,0,0-2.68,2.75,8.23,8.23,0,0,0-1,4,7.87,7.87,0,0,0,1,4,7.35,7.35,0,0,0,2.82,2.74,8.47,8.47,0,0,0,6.74.51,7.6,7.6,0,0,0,2.34-1.22,1.55,1.55,0,0,0,.68-1.37,1.91,1.91,0,0,0-.7-1.33,1.86,1.86,0,0,0-1.24-.43,2.2,2.2,0,0,0-1.22.43,4.38,4.38,0,0,1-1.15.58,4.28,4.28,0,0,1-1.37.25,4.42,4.42,0,0,1-2.22-.54,4,4,0,0,1-1.49-1.47,3.2,3.2,0,0,1-.27-.56h8.74a1.85,1.85,0,0,0,1.31-.51,1.74,1.74,0,0,0,.55-1.3,9.58,9.58,0,0,0-.09-1.33Zm-10.28-.36a3.32,3.32,0,0,1,1.3-1.45A4,4,0,0,1,106,75a3,3,0,0,1,2.89,1.77,3.54,3.54,0,0,1,.22.57h-6.67A2.75,2.75,0,0,1,102.58,76.93Z"/><path class="cls-1" d="M127,65.56a2,2,0,0,0-1.41.55,1.92,1.92,0,0,0-.58,1.43v5.23a7.1,7.1,0,0,0-1.13-.69,7.13,7.13,0,0,0-6.75.34,7.31,7.31,0,0,0-2.56,2.76,8.19,8.19,0,0,0-.93,3.92,7.71,7.71,0,0,0,1,3.94,7.46,7.46,0,0,0,2.75,2.77,7.63,7.63,0,0,0,3.91,1,7.54,7.54,0,0,0,3.9-1A7.43,7.43,0,0,0,128,83a7.71,7.71,0,0,0,1-3.94V67.54a1.92,1.92,0,0,0-2-2m-5.68,17.61a3.63,3.63,0,0,1-1.93-.52,3.75,3.75,0,0,1-1.37-1.45,4.62,4.62,0,0,1,0-4.2,3.79,3.79,0,0,1,1.38-1.43,3.88,3.88,0,0,1,3.88,0A3.79,3.79,0,0,1,124.66,77a4.62,4.62,0,0,1,0,4.2,3.68,3.68,0,0,1-1.34,1.45A3.62,3.62,0,0,1,121.36,83.17Z"/><path class="cls-1" d="M145.74,72a1.94,1.94,0,0,0-1.42-.56,2,2,0,0,0-1.41.55,1.94,1.94,0,0,0-.58,1.44v7.14a2.15,2.15,0,0,1-.38,1.26,3,3,0,0,1-1.1.94,3.66,3.66,0,0,1-1.63.35,4,4,0,0,1-1.75-.37,2.6,2.6,0,0,1-1.14-1.09,4,4,0,0,1-.44-2V73.45a2,2,0,0,0-.57-1.42,2.08,2.08,0,0,0-2.83,0,2,2,0,0,0-.57,1.42v6.23a8,8,0,0,0,.88,3.88A6.16,6.16,0,0,0,135.26,86a7.19,7.19,0,0,0,3.46.83,6.91,6.91,0,0,0,3.36-.82c.17-.1.34-.2.5-.31a1.66,1.66,0,0,0,.32.43,2,2,0,0,0,1.42.57,1.92,1.92,0,0,0,1.43-.58,2,2,0,0,0,.55-1.4V73.45a2,2,0,0,0-.56-1.43"/><path class="cls-1" d="M74.5,33.26a1.93,1.93,0,0,0-2.63.68L63.12,48.83l-3.07.49L59,46.4l6.66-11.33a1.92,1.92,0,0,0,.12-1.68.4.4,0,0,0,0-.11,1.91,1.91,0,0,0-1.91-1.89h0l-15.06.16-2-2.37,1.94-2.44,9.52-.16a1.92,1.92,0,0,0,0-3.83h0l-10.43.18a1.92,1.92,0,0,0-1.47.72L42.77,28a1.9,1.9,0,0,0,0,2.44l3.63,4.26a1.94,1.94,0,0,0,1.46.67h0l13.17-.14-5.87,10a1.87,1.87,0,0,0-.15,1.63L57,52.12a1.92,1.92,0,0,0,1.8,1.26l.31,0,5.52-.9A1.88,1.88,0,0,0,66,51.54l9.21-15.66a1.92,1.92,0,0,0-.68-2.62"/><path class="cls-1" d="M63.68,23.51A1.91,1.91,0,0,1,62,22.45L54.71,7.88a1.9,1.9,0,0,1,0-1.63L57,1.13A1.92,1.92,0,0,1,59.13.05l5.46,1.26a1.93,1.93,0,0,1,1.28,1l4.64,9.33a1.91,1.91,0,1,1-3.42,1.71L62.84,4.84l-3-.7L58.54,7l6.85,13.76a1.92,1.92,0,0,1-.86,2.57,2,2,0,0,1-.85.2"/><path class="cls-2" d="M103.49,22.92l-3.63-4.26A2,2,0,0,0,98.39,18l-13.18.14,5.88-10a1.9,1.9,0,0,0,.14-1.63L89.31,1.25A1.92,1.92,0,0,0,87.51,0h0L87.2,0l-5.52.9a1.9,1.9,0,0,0-1.35.92L71.13,17.5a1.91,1.91,0,1,0,3.3,1.94L83.18,4.55l3.07-.49L87.33,7,80.67,18.3A1.91,1.91,0,0,0,80.54,20v.11A1.9,1.9,0,0,0,82.47,22l15.06-.16,2,2.37-1.94,2.44-9.52.16a1.92,1.92,0,0,0,0,3.83h0l10.43-.18a1.92,1.92,0,0,0,1.47-.72l3.48-4.37a1.9,1.9,0,0,0,0-2.44"/><path class="cls-1" d="M87.6,53.38a2.1,2.1,0,0,1-.43-.05l-5.45-1.26a1.92,1.92,0,0,1-1.29-1l-4.64-9.33A1.92,1.92,0,1,1,79.22,40l4.24,8.53,3,.7,1.27-2.84L80.91,32.64a1.92,1.92,0,0,1,3.43-1.71L91.59,45.5a1.9,1.9,0,0,1,0,1.63l-2.28,5.12a1.92,1.92,0,0,1-1.75,1.13"/></g></g></svg>