<svg xmlns="http://www.w3.org/2000/svg" viewBox="0 0 87.79 76.68"><defs><style>.cls-1{fill:#7e919a;}</style></defs><title>img-subscribeAsset 13</title><g id="Layer_2" data-name="Layer 2"><g id="Layer_1-2" data-name="Layer 1"><path class="cls-1" d="M87.72,67.32,20.05,76.68A2.66,2.66,0,0,1,19.78,75q0-19.62,0-39.23c0-1.06.13-1.6,1.41-1.77,10.06-1.35,20.09-2.81,30.14-4.22l34.54-4.84c.59-.08,1.2-.1,1.88-.15ZM83,34.82,23.45,42.94c.09.72-.16,1.32.22,2l59.5-8.36A3,3,0,0,0,83,34.82ZM23.62,67,83.1,58.65A2.77,2.77,0,0,0,83,56.83L23.54,65.17A3.53,3.53,0,0,0,23.62,67ZM83,45.73,23.54,54.09c-.07.66-.22,1.11.19,1.58L83.07,47.5A2.63,2.63,0,0,0,83,45.73Z"/><path class="cls-1" d="M.11,22.59c4.91,3,9.49,6.14,14.35,8.76,2.84,1.53,3.61,3.38,3.56,6.49-.19,12-.08,24.11-.08,36.17v1.66c-.62.09-.8-.36-1.06-.62Q8.93,67.33,1,59.59a2.55,2.55,0,0,1-1-2c0-11.39,0-22.78,0-34.17C.05,23.27.08,23.07.11,22.59ZM7.34,36.64a2.21,2.21,0,0,0-2.22,1.45,2.12,2.12,0,0,0,.59,2.52,25.58,25.58,0,0,0,2.53,1.72,2,2,0,0,0,2.55-.26,2.3,2.3,0,0,0,.54-2.68C11,38.51,8.2,36.65,7.34,36.64Z"/><path class="cls-1" d="M87.79,18.86c0,.15,0,.31,0,.46C87.66,21.85,87.5,22,85,22.4c-4.75.68-9.52,1.33-14.27,2.07-1.09.17-1.44-.39-1.83-1.16a9.91,9.91,0,0,1,1.39-11A10,10,0,0,1,81.51,9.53,9.85,9.85,0,0,1,87.79,18.86Z"/><path class="cls-1" d="M31.49,26.77c0,.22,0,.58,0,.94-.08,1.48-.52,2.38-2.34,2.49-2.65.16-5.27.72-7.91,1.12a3.77,3.77,0,0,1-2.88-.63q-2.74-1.85-5.64-3.44a1.81,1.81,0,0,1-1-2.23,10,10,0,0,1,10.77-8.25A9.84,9.84,0,0,1,31.49,26.77Z"/><path class="cls-1" d="M29,16.3a13.33,13.33,0,0,0-6.87-2.23A1.19,1.19,0,0,1,21,13.35,13.16,13.16,0,0,0,16.79,9a1,1,0,0,1-.47-1.26C17.43,3,23.09-.4,28,.68c5.33,1.18,8.82,6.12,7.86,11.1-.1.53-.17,1-.84,1.09A12.25,12.25,0,0,0,29,16.3Z"/><path class="cls-1" d="M46.17,12.25A9.25,9.25,0,0,1,53,.51c6.13-1.61,11,1.22,12.58,7.36-1.38.67-3.11.76-4.28,1.8-1.67,1.49-3.25,1.57-5.36.9C52.58,9.48,49.29,10.34,46.17,12.25Z"/><path class="cls-1" d="M57,13.7a12.75,12.75,0,0,0-.55,12.55c-2,.65-4,.64-6,1-1.4.27-2.84.34-4.25.61a1.62,1.62,0,0,1-2-1.05,9.87,9.87,0,0,1,2.09-10.92A9.54,9.54,0,0,1,57,13.7Z"/><path class="cls-1" d="M18.41,14.25A13.31,13.31,0,0,0,8.9,24.87C6.07,23.14,3.32,21.46.57,19.8c-.84-.51-.53-1.27-.42-1.92a10,10,0,0,1,11.9-8A9.52,9.52,0,0,1,18.41,14.25Z"/><path class="cls-1" d="M41.84,28.38l-7.7,1.07c.63-4.24-.15-8-2.92-11.24a8.93,8.93,0,0,1,11-1.76A13.41,13.41,0,0,0,41.84,28.38Z"/><path class="cls-1" d="M66.48,25.06c-2.15.29-4.19.54-6.21.84-.62.09-1.06.06-1.4-.56a9.41,9.41,0,0,1,.25-9.8c1.86-3.15,4.54-5.09,8.37-5.06.08,0,.15.1.35.24C64.73,15.2,64.08,20,66.48,25.06Z"/><path class="cls-1" d="M35.79,2.19a9.37,9.37,0,0,1,10.78-.87A13.31,13.31,0,0,0,43.5,7a12.8,12.8,0,0,0,.2,6.57c-1.75-.36-3.26-1.16-5-1.11A13.52,13.52,0,0,0,35.79,2.19Z"/><path class="cls-1" d="M79.48,6a15,15,0,0,0-8.41,1.9,2.13,2.13,0,0,1-3-1.35,14,14,0,0,0-2.66-5.11C70.49-1.81,78.08.69,79.48,6Z"/></g></g></svg>