<svg xmlns="http://www.w3.org/2000/svg" viewBox="0 0 189.51 126.87"><defs><style>.cls-1{fill:#fff;}</style></defs><title>img-subscribeAsset 7</title><g id="Layer_2" data-name="Layer 2"><g id="Layer_1-2" data-name="Layer 1"><path class="cls-1" d="M150.69,104.81a4.27,4.27,0,0,0,4.8-1.79,4.36,4.36,0,0,0-.33-5.12l-.25-.31,8.73-13.46.39.12a4.26,4.26,0,0,0,4.79-1.79,4.36,4.36,0,0,0-.32-5.12l-.26-.3L170,74.35l-9.39-6.09-1.23,1.9-7-.51-4.23,6.52-4-2.6L129.52,96.06l18.57,12,2.21-3.41Zm2.56-6.17a2.55,2.55,0,0,1,.72,3.45,2.5,2.5,0,1,1-.74-3.46Zm14-17.07a2.5,2.5,0,1,1-.73-3.46A2.49,2.49,0,0,1,167.27,81.57Zm-17.65-4.43,3.66-5.65,5,.36-5,7.67Z"/><path class="cls-1" d="M119.66,78.39a13,13,0,1,1,13-13A13,13,0,0,1,119.66,78.39Zm0-20a7,7,0,1,0,7,7A7,7,0,0,0,119.66,58.39Z"/><path class="cls-1" d="M67.66,42.39a11,11,0,1,1,11-11A11,11,0,0,1,67.66,42.39Zm0-16a5,5,0,1,0,5,5A5,5,0,0,0,67.66,26.39Z"/><path class="cls-1" d="M70.4,37.06q20.73,13.53,41.49,27a6.74,6.74,0,0,0,3.36,1.35,2.94,2.94,0,0,0,2.53-1.64c1.65-2.6-.17-4.14-2.22-5.46Q105.32,51.68,95.1,45q-10.51-6.84-21-13.69A6.57,6.57,0,0,0,70.71,30a3,3,0,0,0-2.53,1.6C66.5,34.15,68.4,35.76,70.4,37.06Z"/><path class="cls-1" d="M181.84,66.84C166,56.4,149,45.34,129.9,33a15.39,15.39,0,0,0-20.2,2.76,62.85,62.85,0,0,0-5.23,7.68c-.58,1-1.18,1.91-1.8,2.89l5,3.27c.65-1,1.28-2,1.89-3a56.52,56.52,0,0,1,4.72-7,9,9,0,0,1,6.94-3.17,9.85,9.85,0,0,1,5.39,1.61c19,12.3,36,23.35,51.91,33.78,5.28,3.47,6.45,9.22,3,14.64-6.32,9.88-12.76,19.76-19.12,29.37-3.47,5.23-8.81,6.44-14,3.14-17.42-11.16-35-22.6-52.18-34-4.92-3.26-6-8.56-2.81-13.83,1.19-2,2.48-3.9,3.84-6l2-3,1.27-1.9-5-3.27L94.3,58.89l-2,3c-1.4,2.11-2.72,4.1-4,6.16C83.52,76,85.43,85,93,90c17.22,11.39,34.8,22.84,52.26,34a16.69,16.69,0,0,0,9,2.81c5.06,0,9.83-2.65,13.17-7.7,6.38-9.63,12.84-19.54,19.18-29.45C191.83,81.53,189.88,72.11,181.84,66.84Z"/><path class="cls-1" d="M84.37,49.75Q75.61,63.47,66.83,77.2c-2.18,3.4-4,3.79-7.35,1.64Q43.22,68.48,27,58.07c-3.36-2.15-3.75-4-1.6-7.36Q31.67,40.78,38,30.9c4.18-6.54,8.34-13.09,12.54-19.62,2.24-3.49,4-3.89,7.51-1.67Q74.24,19.92,90.39,30.26c3.47,2.22,3.87,4,1.63,7.51-.25.39-.5.78-.74,1.17l5.45,3.55,1.43.93,1.14-1.77c4.23-6.65,2.63-13.82-4-18Q78.8,13,62.25,2.47c-6.9-4.39-14-2.85-18.37,4Q36.39,18.14,29,29.83c-3.74,5.85-7.55,11.66-11.2,17.57a12.17,12.17,0,0,0,3.9,17.05L25,66.56c-.54.86-1,1.53-1.4,2.2Q12.33,86.32,1.09,103.87a5.16,5.16,0,0,0-.65,5.21l5.61,12.78a4.28,4.28,0,0,0,4.36,2.78q7.08-.17,14.17-.3A4,4,0,0,0,28,122.66c2.89-4.26,6.16-8.38,5.78-14a3,3,0,0,1,2.08-3.22,17.87,17.87,0,0,0,8.43-8.11c2.22-3.91,4.8-7.63,7.25-11.42.34-.53.52-1.25,1.42-1.44l2.15,1.38c7.08,4.5,14,3,18.5-4Q82.46,68,91.26,54.23ZM44.6,81.5C43,84,41.28,86.41,39.87,89c-2.67,4.9-6,9-11.29,11.33A4.41,4.41,0,0,0,26,104.42c-.14,1.91-.47,3.8-.57,5.72-.12,2.23-1.58,3.77-2.7,5.47-.45.69-9.7,1.09-10.1.42-.79-1.32-1.17-2.89-2-4.17-2.08-3.14-1.43-5.69.62-8.75,6.53-9.75,12.72-19.74,19-29.63.48-.74.95-1.48,1.54-2.41l13.46,8.59C45.49,80.49,44.94,81,44.6,81.5Z"/></g></g></svg>